<?xml version="1.0" standalone="no"?>
<!DOCTYPE svg PUBLIC "-//W3C//DTD SVG 1.1//EN" "http://www.w3.org/Graphics/SVG/1.1/DTD/svg11.dtd" >
<svg xmlns="http://www.w3.org/2000/svg" xmlns:xlink="http://www.w3.org/1999/xlink" version="1.1">
<metadata>
Created by FontForge 20141024 at Sat May 23 02:13:20 2015
 By System Administrator
Copyright 1987 , 2002Adobe Systems Incorporated.  All rights reserved.
</metadata>
<defs>
<font id="OratorStd" horiz-adv-x="600" >
  <font-face 
    font-family="Orator Std"
    font-weight="400"
    font-stretch="normal"
    units-per-em="1000"
    panose-1="2 13 5 9 2 2 3 3 2 4"
    ascent="667"
    descent="-333"
    x-height="521"
    cap-height="667"
    bbox="-3 -288 604 1046"
    underline-thickness="63"
    underline-position="-28"
    stemh="60"
    stemv="67"
    unicode-range="U+0020-FB02"
  />
<missing-glyph 
d="M50 0v700h500v-700h-500zM300 395l170 255h-340zM330 350l170 -255v510zM130 50h340l-170 255zM100 605v-510l170 255z" />
    <glyph glyph-name=".notdef" 
d="M50 0v700h500v-700h-500zM300 395l170 255h-340zM330 350l170 -255v510zM130 50h340l-170 255zM100 605v-510l170 255z" />
    <glyph glyph-name="space" unicode=" " 
 />
    <glyph glyph-name="exclam" unicode="!" 
d="M331 207h-64l-18 460h102zM254 0v148h92v-148h-92z" />
    <glyph glyph-name="quotedbl" unicode="&#x22;" 
d="M176 676h92v-111l-27 -135h-38l-27 135v111zM333 676h92v-111l-27 -135h-38l-27 135v111z" />
    <glyph glyph-name="numbersign" unicode="#" 
d="M267 805h44l-162 -901h-45l61 335h-134l8 44h134l28 157h-134l8 44h134zM329 -96h-45l165 901h44l-58 -321h135l-9 -44h-134l-28 -157h134l-8 -44h-134z" />
    <glyph glyph-name="dollar" unicode="$" 
d="M332 298v-161c44 2 82 34 82 80c0 44 -40 75 -82 81zM262 385v145c-33 -8 -56 -42 -56 -74c0 -33 24 -60 56 -71zM262 137v181c-69 18 -126 66 -126 141c0 70 60 123 126 134v83h70v-83c57 -5 106 -43 140 -87l-49 -43c-45 50 -65 63 -91 67v-164
c81 -12 152 -61 152 -150c0 -83 -74 -141 -152 -142v-83h-70v83c-62 3 -114 48 -146 99l55 40c23 -34 47 -70 91 -76z" />
    <glyph glyph-name="percent" unicode="%" 
d="M433 116c0 32 -10 75 -49 75c-40 0 -50 -43 -50 -75s10 -75 50 -75c39 0 49 43 49 75zM482 675l36 -20l-376 -664l-60 32l330 580c-14 -6 -30 -8 -45 -8c-18 0 -36 3 -53 9c6 -17 9 -35 9 -53c0 -67 -38 -126 -109 -126c-72 0 -110 59 -110 126c0 66 38 125 110 125
c24 0 44 -7 67 -14c24 -8 49 -17 82 -17c40 0 84 7 119 30zM493 116c0 -66 -38 -125 -109 -125c-72 0 -110 59 -110 125s38 125 110 125c71 0 109 -59 109 -125zM263 551c0 31 -10 75 -49 75c-40 0 -50 -44 -50 -75c0 -32 10 -76 50 -76c39 0 49 44 49 76z" />
    <glyph glyph-name="ampersand" unicode="&#x26;" 
d="M358 87l-110 149c-35 -24 -62 -46 -62 -92c0 -53 39 -90 92 -90c29 0 59 13 80 33zM264 319l21 15c32 23 61 46 61 89c0 44 -25 76 -72 76c-41 0 -64 -30 -64 -69c0 -34 15 -62 54 -111zM211 284l-15 20c-29 39 -49 70 -49 122c0 80 50 136 130 136
c78 0 132 -61 132 -136c0 -64 -30 -103 -109 -156l98 -133c19 29 26 64 29 98l66 -13c-6 -50 -23 -101 -53 -142l41 -57l-51 -37l-36 49c-35 -27 -74 -44 -120 -44c-87 0 -158 63 -158 152c0 67 45 106 95 141z" />
    <glyph glyph-name="quoteright" unicode="&#x2019;" 
d="M265 667h92v-45c0 -67 -50 -130 -111 -162l-23 55c34 22 42 56 42 91v61z" />
    <glyph glyph-name="parenleft" unicode="(" 
d="M362 676l40 -39c-90 -86 -124 -213 -124 -332c0 -120 34 -246 124 -332l-40 -40c-105 89 -154 240 -154 372s49 283 154 371z" />
    <glyph glyph-name="parenright" unicode=")" 
d="M198 637l40 39c105 -88 154 -239 154 -371s-49 -283 -154 -372l-40 40c90 86 124 212 124 332c0 119 -34 246 -124 332z" />
    <glyph glyph-name="asterisk" unicode="*" 
d="M143 564l100 -10l-63 74l68 48l52 -94l52 94l68 -48l-63 -74l100 10v-88l-100 9l63 -73l-68 -49l-52 95l-52 -95l-68 49l63 73l-100 -9v88zM300 548c-15 0 -28 -13 -28 -28c0 -16 13 -28 28 -28s28 12 28 28c0 15 -13 28 -28 28z" />
    <glyph glyph-name="plus" unicode="+" 
d="M566 382v-44h-244v-244h-44v244h-244v44h244v244h44v-244h244z" />
    <glyph glyph-name="comma" unicode="," 
d="M265 148h92v-45c0 -67 -50 -130 -111 -162l-23 55c34 22 42 56 42 91v61z" />
    <glyph glyph-name="hyphen" unicode="-" 
d="M189 229v63h222v-63h-222z" />
    <glyph glyph-name="period" unicode="." 
d="M254 0v148h92v-148h-92z" />
    <glyph glyph-name="slash" unicode="/" 
d="M175 -27h-46l296 774h46z" />
    <glyph glyph-name="zero" unicode="0" 
d="M300 676c212 0 186 -268 186 -343c0 -107 18 -342 -186 -342s-186 227 -186 342c0 157 -8 343 186 343zM300 613c-126 0 -116 -147 -116 -280c0 -262 48 -279 116 -279c77 0 116 31 116 279c0 258 -45 280 -116 280z" />
    <glyph glyph-name="one" unicode="1" 
d="M279 60v526l-122 -47l-21 61l210 80v-620h143v-60h-378v60h168z" />
    <glyph glyph-name="two" unicode="2" 
d="M114 0v60l247 319c31 40 56 71 56 125c0 63 -42 109 -107 109c-79 0 -119 -62 -129 -134l-66 9c16 111 77 188 195 188c105 0 177 -64 177 -170c0 -64 -32 -114 -70 -163l-218 -283h287v-60h-372z" />
    <glyph glyph-name="three" unicode="3" 
d="M192 350v54l197 203h-278v60h370v-60l-185 -189c104 2 193 -59 193 -170c0 -89 -47 -158 -121 -203c-55 -34 -120 -54 -248 -54v63c110 0 157 12 192 32c59 32 107 90 107 160c0 85 -75 112 -149 112c-26 0 -52 -5 -78 -8z" />
    <glyph glyph-name="four" unicode="4" 
d="M371 167h-261l99 513l67 -18l-86 -435h181v339h67v-339h53v-60h-53v-167h-67v167z" />
    <glyph glyph-name="five" unicode="5" 
d="M137 325v342h342v-60h-275v-205c33 12 64 21 99 21c98 0 181 -66 181 -177c0 -87 -46 -159 -118 -205c-52 -33 -120 -50 -250 -50v63c83 0 150 5 195 29c60 32 103 93 103 163c0 71 -48 114 -118 114c-42 0 -75 -16 -111 -35h-48z" />
    <glyph glyph-name="six" unicode="6" 
d="M460 618l-38 -55c-31 27 -64 50 -107 50c-121 0 -129 -154 -132 -243c40 34 80 54 133 54c126 0 172 -104 172 -214c0 -119 -64 -219 -192 -219c-172 0 -183 208 -183 335c0 136 17 350 199 350c55 0 108 -21 148 -58zM183 296c1 -209 57 -242 118 -242
c82 0 117 72 117 153c0 76 -23 154 -112 154c-48 0 -89 -33 -123 -65z" />
    <glyph glyph-name="seven" unicode="7" 
d="M153 14l266 593h-275v60h372l-303 -680z" />
    <glyph glyph-name="eight" unicode="8" 
d="M300 311c-59 -37 -121 -65 -121 -144c0 -69 54 -113 121 -113s121 44 121 113c0 79 -62 107 -121 144zM300 380c49 33 99 59 99 126c0 60 -36 107 -99 107s-99 -47 -99 -107c0 -67 50 -93 99 -126zM358 345c75 -38 133 -82 133 -175c0 -109 -85 -179 -191 -179
s-191 70 -191 179c0 93 58 137 134 175c-61 38 -112 84 -112 161c0 97 71 170 169 170s169 -73 169 -170c0 -77 -50 -123 -111 -161z" />
    <glyph glyph-name="nine" unicode="9" 
d="M140 49l38 55c31 -28 65 -50 108 -50c121 0 128 154 131 243c-39 -34 -80 -54 -132 -54c-126 0 -172 103 -172 214c0 118 63 219 191 219c173 0 183 -208 183 -335c0 -136 -17 -350 -199 -350c-54 0 -108 21 -148 58zM417 370c0 205 -54 243 -117 243
c-82 0 -117 -72 -117 -154c0 -76 22 -153 112 -153c47 0 89 33 122 64z" />
    <glyph glyph-name="colon" unicode=":" 
d="M254 0v148h92v-148h-92zM254 284v148h92v-148h-92z" />
    <glyph glyph-name="semicolon" unicode=";" 
d="M265 148h92v-45c0 -67 -50 -130 -111 -162l-23 55c34 22 42 56 42 91v61zM265 284v148h92v-148h-92z" />
    <glyph glyph-name="less" unicode="&#x3c;" 
d="M98 360l379 360l25 -32l-340 -328l340 -328l-25 -32z" />
    <glyph glyph-name="equal" unicode="=" 
d="M566 449v-44h-532v44h532zM566 315v-44h-532v44h532z" />
    <glyph glyph-name="greater" unicode="&#x3e;" 
d="M123 720l379 -360l-379 -360l-25 32l340 328l-340 328z" />
    <glyph glyph-name="question" unicode="?" 
d="M331 220h-69v17c0 72 6 87 63 136c42 36 87 71 87 132c0 62 -36 108 -101 108c-80 0 -115 -69 -127 -138l-66 17c21 107 73 184 191 184c103 0 173 -65 173 -169c0 -77 -44 -124 -99 -171c-41 -36 -52 -44 -52 -102v-14zM250 0v148h92v-148h-92z" />
    <glyph glyph-name="at" unicode="@" 
d="M502 131l24 -63c-73 -48 -158 -77 -246 -77c-125 0 -261 86 -261 287c0 182 100 398 306 398c106 0 256 -80 256 -278c0 -91 -41 -228 -152 -228c-41 0 -55 12 -83 41c-30 -26 -50 -41 -92 -41c-53 0 -91 37 -91 90c0 52 22 118 54 159c29 37 73 64 211 59l-25 -151
c-2 -13 -7 -41 -7 -54c0 -22 10 -40 34 -40c64 0 81 111 81 160c0 132 -77 220 -192 220c-117 0 -230 -121 -230 -337c0 -138 77 -222 196 -222c82 0 149 33 217 77zM346 389l5 26c-25 -5 -55 -7 -73 -29c-24 -29 -45 -82 -45 -121c0 -15 7 -32 26 -32c30 0 63 31 87 156z
" />
    <glyph glyph-name="A" unicode="A" 
d="M391 206h-182l-52 -219l-66 18l169 662h80l169 -662l-66 -18zM375 266l-74 312h-2l-74 -312h150z" />
    <glyph glyph-name="B" unicode="B" 
d="M243 60h91c60 0 101 44 101 141c0 99 -49 132 -119 132h-73v-273zM243 393h60c69 0 101 36 101 106c0 82 -41 108 -122 108h-39v-214zM337 0h-215v60h54v547h-54v60h204c73 0 148 -61 148 -168c0 -55 -22 -102 -71 -129c75 -33 102 -90 102 -170
c0 -139 -76 -200 -168 -200z" />
    <glyph glyph-name="C" unicode="C" 
d="M432 138l55 -38c-39 -63 -97 -109 -173 -109c-174 0 -200 210 -200 342c0 133 26 343 200 343c76 0 128 -44 163 -108l-57 -34c-21 42 -55 79 -106 79c-122 0 -130 -192 -130 -280c0 -87 8 -279 130 -279c52 0 93 43 118 84z" />
    <glyph glyph-name="D" unicode="D" 
d="M173 607h-54v60h176c134 0 213 -59 213 -334c0 -147 -8 -333 -211 -333h-178v60h54v547zM240 607v-547h55c81 0 143 21 143 273c0 254 -68 274 -127 274h-71z" />
    <glyph glyph-name="E" unicode="E" 
d="M157 0v667h325v-60h-258v-220h213v-60h-213v-267h258v-60h-325z" />
    <glyph glyph-name="F" unicode="F" 
d="M176 0v667h328v-60h-261v-220h219v-60h-219v-327h-67z" />
    <glyph glyph-name="G" unicode="G" 
d="M476 346v-297c-43 -35 -99 -58 -155 -58c-172 0 -202 208 -202 341c0 125 29 344 195 344c75 0 130 -46 167 -107l-59 -36c-24 43 -59 80 -112 80c-111 0 -121 -204 -121 -283c0 -229 67 -276 133 -276c28 0 64 12 87 31v201h-125v60h192z" />
    <glyph glyph-name="H" unicode="H" 
d="M130 0v667h67v-280h206v280h67v-667h-67v327h-206v-327h-67z" />
    <glyph glyph-name="I" unicode="I" 
d="M266 60v547h-90v60h248v-60h-91v-547h91v-60h-248v60h90z" />
    <glyph glyph-name="J" unicode="J" 
d="M109 242h67v-67c0 -53 23 -121 99 -121c60 0 96 54 96 130v483h67v-490c0 -127 -82 -186 -168 -186c-82 0 -161 58 -161 189v62z" />
    <glyph glyph-name="K" unicode="K" 
d="M229 667v-275h18l186 288l54 -34l-183 -282l219 -343l-56 -34l-215 345h-23v-332h-67v667h67z" />
    <glyph glyph-name="L" unicode="L" 
d="M169 0v667h67v-607h274v-60h-341z" />
    <glyph glyph-name="M" unicode="M" 
d="M300 384l96 283h84l20 -667h-71l-13 556h-2l-114 -335l-114 335h-2l-13 -556h-70l20 667h83z" />
    <glyph glyph-name="N" unicode="N" 
d="M126 0v667h84l198 -561l2 2l-3 149v410h67v-667h-84l-198 562l-2 -2l3 -151v-409h-67z" />
    <glyph glyph-name="O" unicode="O" 
d="M300 676c188 0 185 -254 185 -342c0 -84 3 -343 -185 -343c-190 0 -185 257 -185 343c0 110 7 342 185 342zM300 613c-118 0 -115 -181 -115 -279c0 -180 21 -280 115 -280c116 0 115 164 115 280c0 126 3 279 -115 279z" />
    <glyph glyph-name="P" unicode="P" 
d="M229 297v-297h-67v667h145c118 0 184 -63 184 -177c0 -124 -70 -193 -162 -193h-100zM229 607v-250l94 1c62 1 98 48 98 132c0 82 -43 117 -115 117h-77z" />
    <glyph glyph-name="Q" unicode="Q" 
d="M435 81l49 -58l-51 -42l-39 47c-26 -23 -59 -37 -94 -37c-93 0 -185 92 -185 342c0 233 81 343 185 343c93 0 185 -91 185 -343c0 -82 -9 -179 -50 -252zM353 76l-85 101l51 43l70 -83c20 61 26 129 26 194c0 76 -6 282 -116 282c-109 0 -114 -209 -114 -285
c0 -71 9 -274 110 -274c23 0 42 6 58 22z" />
    <glyph glyph-name="R" unicode="R" 
d="M229 607v-250h98c58 0 94 43 94 133c0 87 -42 117 -110 117h-82zM162 0v667h180c66 0 149 -57 149 -177c0 -82 -33 -160 -115 -188l138 -286l-60 -29l-150 310h-75v-297h-67z" />
    <glyph glyph-name="S" unicode="S" 
d="M461 525l-65 -10c-11 49 -35 98 -92 98c-63 0 -88 -51 -88 -107c0 -54 11 -71 116 -134c82 -49 138 -90 138 -193c0 -105 -56 -188 -168 -188c-118 0 -161 78 -171 184l67 9c9 -74 25 -130 106 -130c58 0 99 39 99 119c0 88 -57 118 -126 158c-77 45 -128 77 -128 175
c0 90 60 170 155 170c94 0 140 -67 157 -151z" />
    <glyph glyph-name="T" unicode="T" 
d="M268 0v607h-144v60h352v-60h-141v-607h-67z" />
    <glyph glyph-name="U" unicode="U" 
d="M137 667h67v-485c0 -66 13 -128 96 -128s97 63 97 128v485h67v-505c0 -104 -65 -171 -164 -171c-101 0 -163 69 -163 168v508z" />
    <glyph glyph-name="V" unicode="V" 
d="M300 181l138 499l68 -14l-198 -679h-16l-198 679l68 14z" />
    <glyph glyph-name="W" unicode="W" 
d="M441 680l67 -13l-67 -680h-29l-111 403h-2l-111 -403h-29l-67 680l67 13l32 -501h2l97 351h20l97 -351h2z" />
    <glyph glyph-name="X" unicode="X" 
d="M301 292l-148 -305l-60 28l174 348l-143 286l62 31l114 -249l114 249l62 -31l-143 -286l174 -348l-60 -28z" />
    <glyph glyph-name="Y" unicode="Y" 
d="M300 341l144 339l62 -25l-173 -392v-263h-67v263l-172 392l62 25z" />
    <glyph glyph-name="Z" unicode="Z" 
d="M104 0l283 607h-254v60h355l-282 -607h290v-60h-392z" />
    <glyph glyph-name="bracketleft" unicode="[" 
d="M178 676h270v-60h-203v-594h203v-60h-270v714z" />
    <glyph glyph-name="backslash" unicode="\" 
d="M425 -27l-296 774h46l296 -774h-46z" />
    <glyph glyph-name="bracketright" unicode="]" 
d="M422 676v-714h-270v60h203v594h-203v60h270z" />
    <glyph glyph-name="asciicircum" unicode="^" 
d="M160 357h-50l164 323h52l161 -323h-50l-137 275z" />
    <glyph glyph-name="underscore" unicode="_" 
d="M600 -108h-600v36h600v-36z" />
    <glyph glyph-name="quoteleft" unicode="&#x2018;" 
d="M308 469h-92v45c0 67 50 130 111 162l23 -55c-34 -22 -42 -56 -42 -91v-61z" />
    <glyph glyph-name="a" unicode="a" 
d="M393 142h-185l-49 -155l-66 24l164 510h86l164 -510l-66 -24zM374 202l-74 241l-74 -241h148z" />
    <glyph glyph-name="b" unicode="b" 
d="M243 60h78c59 0 114 13 114 84c0 52 -34 94 -98 94h-94v-178zM243 298h75c58 0 87 37 87 84c0 62 -44 79 -91 79h-71v-163zM334 0h-212v60h54v401h-54v60h164c132 0 189 -50 189 -139c0 -45 -19 -85 -59 -107c57 -18 89 -67 89 -126c0 -94 -62 -149 -171 -149z" />
    <glyph glyph-name="c" unicode="c" 
d="M432 138l55 -38c-42 -66 -92 -109 -173 -109c-152 0 -200 140 -200 269c0 208 110 270 194 270c81 0 128 -42 165 -111l-61 -31c-22 42 -52 79 -103 79c-104 0 -125 -126 -125 -206c0 -81 19 -207 125 -207c61 0 92 37 123 84z" />
    <glyph glyph-name="d" unicode="d" 
d="M119 461v60h174c148 0 215 -61 215 -254c0 -163 -28 -267 -215 -267h-174v60h54v401h-54zM240 461v-401h71c88 0 127 50 127 200c0 160 -46 201 -129 201h-69z" />
    <glyph glyph-name="e" unicode="e" 
d="M157 0v521h325v-60h-258v-156h213v-60h-213v-185h258v-60h-325z" />
    <glyph glyph-name="f" unicode="f" 
d="M176 0v521h328v-60h-261v-156h219v-60h-219v-245h-67z" />
    <glyph glyph-name="g" unicode="g" 
d="M476 278v-230c-43 -34 -107 -57 -160 -57c-153 0 -197 142 -197 270c0 126 46 269 195 269c70 0 131 -41 167 -100l-57 -37c-25 42 -63 74 -114 74c-103 0 -121 -129 -121 -208c0 -81 18 -205 123 -205c34 0 68 9 97 27v137h-125v60h192z" />
    <glyph glyph-name="h" unicode="h" 
d="M130 0v521h67v-216h206v216h67v-521h-67v245h-206v-245h-67z" />
    <glyph glyph-name="i" unicode="i" 
d="M193 0v60h73v401h-73v60h214v-60h-74v-401h74v-60h-214z" />
    <glyph glyph-name="j" unicode="j" 
d="M109 194h67c-4 -102 25 -140 94 -140c68 0 101 41 101 104v363h67v-376c0 -74 -52 -154 -168 -154c-112 0 -161 64 -161 203z" />
    <glyph glyph-name="k" unicode="k" 
d="M229 521v-222h25l179 235l51 -40l-173 -219l203 -245l-51 -43l-211 257h-23v-244h-67v521h67z" />
    <glyph glyph-name="l" unicode="l" 
d="M170 0v521h67v-461h273v-60h-340z" />
    <glyph glyph-name="m" unicode="m" 
d="M300 147l-117 275h-2l-13 -422h-71l21 521h88l94 -226l94 226h88l21 -521h-71l-13 422h-2z" />
    <glyph glyph-name="n" unicode="n" 
d="M126 0v521h83l202 -439l2 2l-6 135v302h67v-521h-83l-202 439l-2 -2l6 -136v-301h-67z" />
    <glyph glyph-name="o" unicode="o" 
d="M300 530c83 0 185 -60 185 -270c0 -42 -3 -269 -185 -269c-84 0 -185 60 -185 269c0 208 99 270 185 270zM300 467c-101 0 -115 -130 -115 -207c0 -76 14 -206 115 -206s115 130 115 206c0 77 -14 207 -115 207z" />
    <glyph glyph-name="p" unicode="p" 
d="M229 224v-224h-67v521h162c121 0 168 -66 168 -142c0 -110 -78 -155 -151 -155h-112zM229 284h92c66 0 101 30 101 90c0 71 -46 87 -101 87h-92v-177z" />
    <glyph glyph-name="q" unicode="q" 
d="M441 70l59 -54l-42 -45l-58 53c-29 -22 -63 -33 -100 -33c-83 0 -185 60 -185 269c0 199 91 270 185 270c83 0 185 -60 185 -270c0 -61 -9 -138 -44 -190zM352 68l-87 79l41 46l84 -77c19 45 25 96 25 144c0 77 -14 207 -115 207s-115 -130 -115 -207
c0 -76 14 -206 115 -206c18 0 36 5 52 14z" />
    <glyph glyph-name="r" unicode="r" 
d="M216 283h88c65 0 108 37 108 96c0 47 -28 82 -88 82h-108v-178zM149 0v521h177c87 0 156 -41 156 -142c0 -64 -43 -127 -106 -146l128 -211l-58 -35l-133 236h-97v-223h-67z" />
    <glyph glyph-name="s" unicode="s" 
d="M131 146l60 19c13 -64 44 -111 114 -111c55 0 98 30 98 88c0 64 -54 80 -105 101c-76 32 -148 52 -148 150c0 88 71 137 153 137c87 0 138 -50 159 -131l-64 -19c-12 51 -39 87 -96 87c-43 0 -85 -22 -85 -69c0 -49 30 -63 70 -81l111 -49c47 -26 72 -68 72 -122
c0 -99 -69 -155 -165 -155c-97 0 -158 62 -174 155z" />
    <glyph glyph-name="t" unicode="t" 
d="M268 0v461h-144v60h352v-60h-141v-461h-67z" />
    <glyph glyph-name="u" unicode="u" 
d="M137 521h67v-355c0 -76 22 -112 91 -112c84 0 102 37 102 112v355h67v-387c0 -69 -49 -143 -164 -143c-113 0 -163 71 -163 147v383z" />
    <glyph glyph-name="v" unicode="v" 
d="M300 152l142 382l64 -24l-200 -523h-12l-200 523l64 24z" />
    <glyph glyph-name="w" unicode="w" 
d="M93 526l69 8l40 -366h2l87 256h18l87 -256h2l41 366l68 -8l-75 -539h-23l-109 321l-109 -321h-23z" />
    <glyph glyph-name="x" unicode="x" 
d="M300 217l-139 -230l-60 34l161 255l-147 223l61 35l124 -198l124 198l61 -35l-147 -223l161 -255l-60 -34z" />
    <glyph glyph-name="y" unicode="y" 
d="M300 266l139 268l63 -33l-169 -300v-201h-67v201l-168 300l63 33z" />
    <glyph glyph-name="z" unicode="z" 
d="M104 0l273 461h-244v60h355l-271 -461h279v-60h-392z" />
    <glyph glyph-name="braceleft" unicode="{" 
d="M323 199v-140c0 -74 22 -101 115 -101h23v-25h-33c-138 0 -172 38 -172 140v132c0 91 -32 76 -105 99c72 25 105 12 105 100v133c0 100 39 139 149 139h56v-25h-24c-97 0 -114 -28 -114 -100v-140c0 -45 -1 -82 -46 -107c45 -24 46 -60 46 -105z" />
    <glyph glyph-name="bar" unicode="|" 
d="M278 -288v1080h44v-1080h-44z" />
    <glyph glyph-name="braceright" unicode="}" 
d="M277 410v140c0 74 -22 101 -115 101h-23v25h33c138 0 172 -38 172 -140v-132c0 -91 32 -76 105 -99c-72 -25 -105 -12 -105 -100v-133c0 -100 -39 -139 -149 -139h-56v25h24c97 0 114 28 114 100v140c0 45 1 82 46 107c-45 24 -46 60 -46 105z" />
    <glyph glyph-name="asciitilde" unicode="~" 
d="M538 441l32 -23c-29 -54 -84 -114 -150 -114c-59 0 -188 75 -240 75c-62 0 -91 -54 -119 -100l-31 23c30 53 76 121 145 121c82 0 188 -75 244 -75c52 0 98 49 119 93z" />
    <glyph glyph-name="exclamdown" unicode="&#xa1;" 
d="M249 519v148h92v-148h-92zM326 460l20 -460h-102l18 460h64z" />
    <glyph glyph-name="cent" unicode="&#xa2;" 
d="M340 68v-77h-67v79c-124 26 -159 154 -159 266s35 241 159 267v73h67v-72c60 -7 107 -57 133 -108l-61 -32c-16 31 -38 61 -72 74v-405c41 10 71 47 92 81l55 -38c-34 -54 -80 -100 -147 -108zM273 136v401c-76 -29 -89 -128 -89 -200c0 -71 12 -173 89 -201z" />
    <glyph glyph-name="sterling" unicode="&#xa3;" 
d="M236 404h184v-60h-166c10 -40 25 -82 25 -123c0 -54 -23 -91 -49 -137c21 5 44 8 66 8c27 0 49 -9 69 -19c19 -9 36 -20 50 -20c27 0 46 20 64 36l40 -44c-30 -29 -59 -54 -103 -54c-26 0 -45 9 -65 19c-20 9 -41 19 -71 19c-44 0 -76 -18 -113 -38l-36 47
c60 99 78 139 78 178c0 37 -13 91 -23 128h-106v60h89c-11 36 -23 73 -23 111c0 94 82 161 173 161c79 0 146 -43 176 -116l-61 -22c-22 46 -56 78 -111 78c-64 0 -107 -42 -107 -108c0 -38 9 -65 20 -104z" />
    <glyph glyph-name="fraction" unicode="&#x2044;" 
d="M462 680l53 -29l-377 -664l-53 26z" />
    <glyph glyph-name="yen" unicode="&#xa5;" 
d="M358 327h122v-60h-147v-267h-67v267h-146v60h122l-148 328l62 25l144 -339l144 339l62 -25z" />
    <glyph glyph-name="florin" unicode="&#x192;" 
d="M361 494l-13 -103h96v-60h-103l-35 -292c-3 -24 -8 -173 -146 -173h-51v60h43c70 0 79 53 87 122l34 283h-107v60h114l14 112c3 24 8 173 146 173h51v-60h-43c-70 0 -78 -53 -87 -122z" />
    <glyph glyph-name="section" unicode="&#xa7;" 
d="M308 471l44 -22c53 -27 113 -55 113 -123c0 -41 -22 -77 -54 -101c33 -25 55 -54 55 -98c0 -86 -78 -136 -158 -136c-83 0 -152 51 -174 131l67 23c16 -53 53 -94 113 -94c43 0 82 24 82 70c0 47 -39 62 -75 81l-48 25c-59 31 -123 57 -123 134c0 38 20 76 51 97
c-27 23 -42 55 -42 91c0 79 75 127 148 127c66 0 125 -43 150 -103l-59 -26c-17 39 -47 69 -93 69c-42 0 -76 -25 -76 -69s47 -60 79 -76zM322 394l-71 36c-19 -18 -31 -40 -31 -67c0 -23 10 -39 40 -55l102 -54c20 15 33 40 33 65c0 40 -43 60 -73 75z" />
    <glyph glyph-name="currency" unicode="&#xa4;" 
d="M120 506l-109 107l33 32l108 -107c42 34 94 52 148 52s106 -18 148 -52l108 107l33 -32l-109 -107c33 -45 50 -90 50 -146s-17 -101 -50 -146l109 -107l-33 -32l-108 107c-42 -34 -94 -52 -148 -52s-106 18 -148 52l-108 -107l-33 32l109 107c-33 45 -50 90 -50 146
s17 101 50 146zM300 169c108 0 191 83 191 191s-83 192 -191 192s-191 -84 -191 -192s83 -191 191 -191z" />
    <glyph glyph-name="quotesingle" unicode="'" 
d="M254 676h92v-111l-27 -135h-38l-27 135v111z" />
    <glyph glyph-name="quotedblleft" unicode="&#x201c;" 
d="M421 469h-92v45c0 67 50 130 111 162l23 -55c-34 -22 -42 -56 -42 -91v-61zM235 469h-92v45c0 67 50 130 111 162l23 -55c-34 -22 -42 -56 -42 -91v-61z" />
    <glyph glyph-name="guillemotleft" unicode="&#xab;" 
d="M293 570l47 -49l-205 -191l205 -192l-47 -50l-254 242zM517 570l47 -49l-205 -191l205 -192l-47 -50l-254 242z" />
    <glyph glyph-name="guilsinglleft" unicode="&#x2039;" 
d="M396 570l47 -49l-205 -191l205 -192l-47 -50l-254 242z" />
    <glyph glyph-name="guilsinglright" unicode="&#x203a;" 
d="M204 570l254 -240l-254 -242l-47 50l205 192l-205 191z" />
    <glyph glyph-name="fi" unicode="&#xfb01;" 
d="M540 521v-60h-73v-401h73v-60h-213v60h73v401h-243v-156h152v-60h-152v-245h-67v521h450z" />
    <glyph glyph-name="fl" unicode="&#xfb02;" 
d="M430 521v-461h160v-60h-227v461h-220v-156h152v-60h-152v-245h-67v521h354z" />
    <glyph glyph-name="endash" unicode="&#x2013;" 
d="M78 229v63h444v-63h-444z" />
    <glyph glyph-name="dagger" unicode="&#x2020;" 
d="M262 347l5 76l-118 -6v73l119 -6l-10 183h85l-10 -183l119 6v-73l-118 6l5 -76l-10 -347h-57z" />
    <glyph glyph-name="daggerdbl" unicode="&#x2021;" 
d="M267 439l-121 -6v72l119 -6l-6 168h83l-6 -168l119 6v-72l-121 6v-211l121 6v-73l-119 7l6 -168h-83l6 168l-119 -7v73l121 -6v211z" />
    <glyph glyph-name="periodcentered" unicode="&#xb7;" 
d="M250 360c0 28 22 50 50 50s50 -22 50 -50s-22 -50 -50 -50s-50 22 -50 50z" />
    <glyph glyph-name="paragraph" unicode="&#xb6;" 
d="M278 -67v356c-119 -9 -221 68 -221 192c0 61 17 195 240 195h246v-60h-46v-683h-67v683h-85v-683h-67z" />
    <glyph glyph-name="bullet" unicode="&#x2022;" 
d="M177 252c0 67 56 123 123 123s123 -56 123 -123c0 -69 -56 -123 -123 -123c-69 0 -123 54 -123 123z" />
    <glyph glyph-name="quotesinglbase" unicode="&#x201a;" 
d="M265 148h92v-45c0 -67 -50 -130 -111 -162l-23 55c34 22 42 56 42 91v61z" />
    <glyph glyph-name="quotedblbase" unicode="&#x201e;" 
d="M179 148h92v-45c0 -67 -50 -130 -111 -162l-23 55c34 22 42 56 42 91v61zM365 148h92v-45c0 -67 -50 -130 -111 -162l-23 55c34 22 42 56 42 91v61z" />
    <glyph glyph-name="quotedblright" unicode="&#x201d;" 
d="M179 667h92v-45c0 -67 -50 -130 -111 -162l-23 55c34 22 42 56 42 91v61zM365 667h92v-45c0 -67 -50 -130 -111 -162l-23 55c34 22 42 56 42 91v61z" />
    <glyph glyph-name="guillemotright" unicode="&#xbb;" 
d="M83 570l254 -240l-254 -242l-47 50l205 192l-205 191zM307 570l254 -240l-254 -242l-47 50l205 192l-205 191z" />
    <glyph glyph-name="ellipsis" unicode="&#x2026;" 
d="M54 0v148h92v-148h-92zM254 0v148h92v-148h-92zM454 0v148h92v-148h-92z" />
    <glyph glyph-name="perthousand" unicode="&#x2030;" 
d="M320 116c0 28 -7 75 -44 75s-44 -47 -44 -75s7 -75 44 -75s44 47 44 75zM363 676l33 -21l-336 -664l-53 32l294 580c-13 -6 -26 -8 -40 -8c-16 0 -32 3 -47 9c5 -17 8 -35 8 -53c0 -60 -30 -126 -98 -126s-98 66 -98 126c0 59 30 125 98 125c18 0 35 -4 52 -12
c27 -13 50 -19 81 -19c37 0 76 8 106 31zM374 116c0 -60 -30 -125 -98 -125s-98 65 -98 125s30 125 98 125s98 -65 98 -125zM168 551c0 28 -7 75 -44 75s-44 -47 -44 -75s7 -76 44 -76s44 48 44 76zM593 116c0 -60 -30 -125 -98 -125s-98 65 -98 125s30 125 98 125
s98 -65 98 -125zM539 116c0 28 -7 75 -44 75s-44 -47 -44 -75s7 -75 44 -75s44 47 44 75z" />
    <glyph glyph-name="questiondown" unicode="&#xbf;" 
d="M269 447h69v-17c0 -72 -6 -87 -63 -136c-42 -36 -87 -71 -87 -132c0 -62 36 -108 101 -108c80 0 115 69 127 138l66 -17c-21 -107 -73 -184 -191 -184c-103 0 -173 65 -173 169c0 77 44 124 99 171c41 36 52 44 52 102v14zM257 519v148h92v-148h-92z" />
    <glyph glyph-name="grave" unicode="`" 
d="M236 695l177 -101l-26 -44l-187 82z" />
    <glyph glyph-name="acute" unicode="&#xb4;" 
d="M377 695l36 -63l-187 -82l-26 44z" />
    <glyph glyph-name="circumflex" unicode="&#x2c6;" 
d="M300 613l-127 -62l-24 36l151 102l151 -102l-23 -36z" />
    <glyph glyph-name="tilde" unicode="&#x2dc;" 
d="M403 680l51 -16c-13 -46 -31 -105 -90 -105c-31 0 -49 13 -72 31c-11 9 -33 26 -49 26c-30 0 -39 -40 -48 -62l-49 19c17 46 39 103 97 103c27 0 46 -15 66 -30c14 -11 34 -28 52 -28c28 0 36 42 42 62z" />
    <glyph glyph-name="macron" unicode="&#xaf;" 
d="M444 586h-287v60h287v-60z" />
    <glyph glyph-name="breve" unicode="&#x2d8;" 
d="M392 682h60c-1 -84 -64 -124 -145 -124c-87 0 -156 28 -159 124h60c-2 -56 41 -74 92 -74c69 0 92 30 92 74z" />
    <glyph glyph-name="dotaccent" unicode="&#x2d9;" 
d="M300 680c33 0 48 -35 48 -63s-15 -63 -48 -63s-48 35 -48 63c0 29 15 63 48 63z" />
    <glyph glyph-name="dieresis" unicode="&#xa8;" 
d="M208 680c33 0 48 -35 48 -63s-15 -63 -48 -63s-48 35 -48 63c0 29 15 63 48 63zM392 680c33 0 48 -35 48 -63s-15 -63 -48 -63s-48 35 -48 63c0 29 15 63 48 63z" />
    <glyph glyph-name="ring" unicode="&#x2da;" 
d="M300 681c48 0 87 -39 87 -86c0 -48 -39 -87 -87 -87s-87 39 -87 87c0 47 39 86 87 86zM300 641c-26 0 -47 -21 -47 -46c0 -26 21 -47 47 -47s47 21 47 47c0 25 -21 46 -47 46z" />
    <glyph glyph-name="cedilla" unicode="&#xb8;" 
d="M346 13l-18 -55c42 -2 80 -24 80 -71c0 -48 -50 -77 -93 -77c-34 0 -71 15 -102 29l20 51c23 -11 48 -20 74 -20c13 0 31 4 31 20c0 33 -65 30 -85 32l33 91h60z" />
    <glyph glyph-name="hungarumlaut" unicode="&#x2dd;" 
d="M265 683l41 -58l-186 -82l-31 41zM470 683l41 -58l-186 -82l-31 41z" />
    <glyph glyph-name="ogonek" unicode="&#x2db;" 
d="M361 -96v-59c-34 -13 -59 -22 -96 -22c-59 0 -120 26 -120 93c0 52 41 87 86 107h98c-29 -22 -114 -62 -114 -105c0 -30 21 -40 48 -40c34 0 68 10 98 26z" />
    <glyph glyph-name="caron" unicode="&#x2c7;" 
d="M173 687l127 -62l128 62l23 -36l-151 -102l-151 102z" />
    <glyph glyph-name="emdash" unicode="&#x2014;" 
d="M0 229v63h600v-63h-600z" />
    <glyph glyph-name="AE" unicode="&#xc6;" 
d="M284 266v341h-27l-80 -341h107zM284 0v206h-120l-53 -219l-68 18l168 662h297v-60h-157v-220h145v-60h-145v-267h157v-60h-224z" />
    <glyph glyph-name="ordfeminine" unicode="&#xaa;" 
d="M351 428h-102l-32 -90l-63 20l111 309h70l111 -309l-63 -20zM333 483l-33 97l-33 -97h66zM140 236v55h320v-55h-320z" />
    <glyph glyph-name="Lslash" unicode="&#x141;" 
d="M183 304l-100 -37v66l100 38v296h67v-271l99 38v-67l-99 -38v-269h274v-60h-341v304z" />
    <glyph glyph-name="Oslash" unicode="&#xd8;" 
d="M197 212l193 353c-18 31 -47 48 -83 48c-58 0 -115 -28 -115 -267c0 -45 -1 -88 5 -134zM412 487l-197 -363v-2c17 -41 45 -68 92 -68c46 0 115 12 115 268c0 54 -2 108 -8 163v2h-2zM178 56l-33 -59l-51 26l52 97c-20 68 -24 143 -24 214c0 92 -4 342 185 342
c44 0 86 -19 116 -50l32 58l52 -27l-48 -88c29 -73 33 -156 33 -235c0 -116 -8 -343 -185 -343c-49 0 -100 26 -129 65z" />
    <glyph glyph-name="OE" unicode="&#x152;" 
d="M315 667h216v-60h-154v-220h142v-60h-142v-267h154v-60h-220c-8 -3 -16 -5 -25 -7c-8 -1 -17 -2 -26 -2c-198 0 -191 271 -191 344c0 77 -3 341 186 341c21 0 41 0 60 -9zM310 73v524c-15 13 -35 16 -55 16c-63 0 -116 -32 -116 -278c0 -145 11 -281 116 -281
c19 0 40 7 55 19z" />
    <glyph glyph-name="ordmasculine" unicode="&#xba;" 
d="M140 236v55h320v-55h-320zM300 676c94 0 130 -82 130 -165c0 -82 -36 -164 -130 -164s-129 82 -129 164c0 83 35 165 129 165zM300 621c-55 0 -62 -68 -62 -110s7 -109 62 -109s63 67 63 109c0 43 -8 110 -63 110z" />
    <glyph glyph-name="ae" unicode="&#xe6;" 
d="M291 202v259h-42l-76 -259h118zM291 0v142h-137l-48 -155l-66 24l164 510h332v-60h-178v-156h145v-60h-145v-185h178v-60h-245z" />
    <glyph glyph-name="dotlessi" unicode="&#x131;" 
d="M193 0v60h73v401h-73v60h214v-60h-74v-401h74v-60h-214z" />
    <glyph glyph-name="lslash" unicode="&#x142;" 
d="M237 521v-183l87 33v-67l-87 -33v-211h273v-60h-340v246l-87 -33v67l87 33v208h67z" />
    <glyph glyph-name="oslash" unicode="&#xf8;" 
d="M200 141l165 301c-17 17 -41 25 -65 25c-101 0 -115 -130 -115 -207c0 -40 4 -81 15 -119zM399 383l-166 -303c19 -17 42 -26 67 -26c101 0 115 130 115 206c0 42 -4 84 -16 123zM396 500l21 38l50 -28l-29 -55c37 -56 47 -128 47 -195c0 -197 -91 -269 -185 -269
c-35 0 -70 10 -98 32l-21 -39l-51 27l31 57c-37 54 -46 129 -46 192c0 199 91 270 185 270c34 0 69 -10 96 -30z" />
    <glyph glyph-name="oe" unicode="&#x153;" 
d="M303 521h238v-60h-178v-156h146v-60h-146v-185h178v-60h-238c-8 -3 -16 -5 -25 -7c-9 -1 -18 -2 -27 -2c-151 0 -191 145 -191 269c0 210 102 270 185 270c20 0 40 -2 58 -9zM296 68v385c-15 9 -32 14 -51 14c-101 0 -115 -130 -115 -207c0 -76 14 -206 115 -206
c19 0 36 5 51 14z" />
    <glyph glyph-name="germandbls" unicode="&#xdf;" 
d="M277 248v60c44 6 65 45 65 87c0 44 -17 72 -64 72c-62 0 -65 -46 -65 -95v-372h-67v419c0 40 42 111 139 111c77 0 127 -52 127 -128c0 -43 -17 -89 -55 -111c63 -17 97 -78 97 -140c0 -111 -76 -151 -135 -151h-61v60h46c54 0 80 29 80 88c0 69 -38 102 -107 100z" />
    <glyph glyph-name="onesuperior" unicode="&#xb9;" 
d="M281 382v227l-62 -21l-18 45l140 47v-298h58v-50h-192v50h74z" />
    <glyph glyph-name="logicalnot" unicode="&#xac;" 
d="M522 173v232h-488v44h532v-276h-44z" />
    <glyph glyph-name="mu" unicode="&#xb5;" 
d="M402 0v44c-23 -32 -60 -53 -100 -53c-41 0 -78 17 -103 49v-251h-67v732h67v-344c0 -101 71 -123 98 -123c76 0 105 82 105 144v323h67v-521h-67z" />
    <glyph glyph-name="trademark" unicode="&#x2122;" 
d="M581 676v-282h-40v242h-2l-96 -242h-26l-93 242h-2v-242h-40v282h68l81 -199l84 199h66zM248 676v-40h-94v-242h-40v242h-95v40h229z" />
    <glyph glyph-name="Eth" unicode="&#xd0;" 
d="M173 607h-54v60h176c134 0 213 -59 213 -334c0 -147 -8 -333 -211 -333h-178v60h54v243h-54v60h54v244zM240 607v-244h79v-60h-79v-243h55c81 0 143 21 143 273c0 254 -68 274 -127 274h-71z" />
    <glyph glyph-name="onehalf" unicode="&#xbd;" 
d="M123 382v227l-62 -21l-18 45l140 47v-298h58v-50h-192v50h74zM464 680l53 -29l-377 -664l-53 26zM334 0v42l132 152c15 18 31 32 31 57c0 28 -20 43 -46 43c-41 0 -57 -29 -61 -65l-57 7c8 67 48 108 117 108c56 0 107 -30 107 -91c0 -37 -21 -63 -45 -90l-100 -113h144
v-50h-222z" />
    <glyph glyph-name="plusminus" unicode="&#xb1;" 
d="M566 429v-44h-244v-244h-44v244h-244v44h244v244h44v-244h244zM566 91v-44h-532v44h532z" />
    <glyph glyph-name="Thorn" unicode="&#xde;" 
d="M229 149v-149h-67v667h67v-148h78c118 0 184 -63 184 -177c0 -124 -70 -193 -162 -193h-100zM229 459v-250h94c62 0 98 49 98 133c0 82 -43 117 -115 117h-77z" />
    <glyph glyph-name="onequarter" unicode="&#xbc;" 
d="M476 78h-143l58 267l57 -10l-46 -207h74v162h60v-162h28v-50h-28v-78h-60v78zM116 382v227l-62 -21l-18 45l140 47v-298h58v-50h-192v50h74zM460 680l53 -29l-377 -664l-53 26z" />
    <glyph glyph-name="divide" unicode="&#xf7;" 
d="M566 382v-44h-532v44h532zM343 205c0 -24 -19 -43 -43 -43s-43 19 -43 43s19 43 43 43s43 -19 43 -43zM343 515c0 -24 -19 -43 -43 -43s-43 19 -43 43s19 43 43 43s43 -19 43 -43z" />
    <glyph glyph-name="brokenbar" unicode="&#xa6;" 
d="M278 792h44v-360h-44v360zM278 72h44v-360h-44v360z" />
    <glyph glyph-name="degree" unicode="&#xb0;" 
d="M107 549c0 107 86 193 193 193s193 -86 193 -193c0 -106 -86 -193 -193 -193s-193 87 -193 193zM149 549c0 -83 68 -151 151 -151s151 68 151 151s-68 151 -151 151s-151 -68 -151 -151z" />
    <glyph glyph-name="thorn" unicode="&#xfe;" 
d="M229 112v-112h-67v521h67v-112h95c121 0 168 -66 168 -142c0 -110 -78 -155 -151 -155h-112zM229 172h92c66 0 101 30 101 90c0 71 -46 87 -101 87h-92v-177z" />
    <glyph glyph-name="threequarters" unicode="&#xbe;" 
d="M477 78h-143l58 267l57 -10l-46 -207h74v162h60v-162h28v-50h-28v-78h-60v78zM461 680l53 -29l-377 -664l-53 26zM257 676v-42l-86 -79c48 -5 92 -37 92 -89c0 -41 -34 -144 -222 -133v50c96 -1 162 21 162 82c0 37 -40 46 -70 46c-18 0 -35 -3 -53 -6v39l92 82h-136v50
h221z" />
    <glyph glyph-name="twosuperior" unicode="&#xb2;" 
d="M189 332v42l132 152c15 18 31 32 31 57c0 28 -20 43 -46 43c-41 0 -57 -29 -61 -65l-57 7c8 67 48 108 117 108c56 0 107 -30 107 -91c0 -37 -21 -63 -45 -90l-100 -113h144v-50h-222z" />
    <glyph glyph-name="registered" unicode="&#xae;" 
d="M301 -9c-167 0 -301 152 -301 341c0 188 134 340 301 340c166 0 299 -152 299 -340c0 -189 -133 -341 -299 -341zM301 41c127 0 249 121 249 291c0 172 -132 290 -249 290c-121 0 -251 -118 -251 -290c0 -158 114 -291 251 -291zM349 317l101 -176h-59l-95 176h-56v-176
h-50v381h145c78 0 118 -31 118 -101c0 -74 -45 -102 -104 -104zM240 472v-105h91c41 0 72 11 72 56c0 46 -35 49 -77 49h-86z" />
    <glyph glyph-name="minus" unicode="&#x2212;" 
d="M566 382v-44h-532v44h532z" />
    <glyph glyph-name="eth" unicode="&#xf0;" 
d="M173 290v171h-54v60h174c148 0 215 -61 215 -254c0 -163 -28 -267 -215 -267h-174v60h54v170h-54v60h54zM240 290h79v-60h-79v-170h71c88 0 127 50 127 200c0 160 -46 201 -129 201h-69v-171z" />
    <glyph glyph-name="multiply" unicode="&#xd7;" 
d="M566 126l-31 -32l-235 235l-235 -235l-31 32l235 234l-235 235l31 31l235 -235l235 235l31 -31l-235 -235z" />
    <glyph glyph-name="threesuperior" unicode="&#xb3;" 
d="M408 676v-42l-86 -79c48 -5 92 -37 92 -89c0 -41 -34 -145 -222 -134v50c96 -1 162 22 162 83c0 37 -40 46 -70 46c-18 0 -35 -3 -53 -6v39l92 82h-136v50h221z" />
    <glyph glyph-name="copyright" unicode="&#xa9;" 
d="M301 676c165 0 296 -152 296 -342s-131 -343 -296 -343s-298 153 -298 343s133 342 298 342zM301 626c-120 0 -248 -108 -248 -292c0 -160 116 -293 248 -293c108 0 246 113 246 293c0 154 -112 292 -246 292zM399 272h50c-8 -80 -66 -134 -135 -134
c-98 0 -165 88 -165 199c0 113 63 197 163 197c71 0 126 -48 137 -129h-50c-8 53 -39 79 -86 79c-78 0 -114 -61 -114 -146c0 -81 39 -150 115 -150c47 0 79 28 85 84z" />
    <glyph glyph-name="Aacute" unicode="&#xc1;" 
d="M391 206h-182l-52 -219l-66 18l169 662h80l169 -662l-66 -18zM375 266l-74 312h-2l-74 -312h150zM377 841l36 -63l-187 -82l-26 44z" />
    <glyph glyph-name="Acircumflex" unicode="&#xc2;" 
d="M391 206h-182l-52 -219l-66 18l169 662h80l169 -662l-66 -18zM375 266l-74 312h-2l-74 -312h150zM300 759l-127 -62l-24 36l151 102l151 -102l-23 -36z" />
    <glyph glyph-name="Adieresis" unicode="&#xc4;" 
d="M391 206h-182l-52 -219l-66 18l169 662h80l169 -662l-66 -18zM375 266l-74 312h-2l-74 -312h150zM208 826c33 0 48 -35 48 -63s-15 -63 -48 -63s-48 35 -48 63c0 29 15 63 48 63zM392 826c33 0 48 -35 48 -63s-15 -63 -48 -63s-48 35 -48 63c0 29 15 63 48 63z" />
    <glyph glyph-name="Agrave" unicode="&#xc0;" 
d="M391 206h-182l-52 -219l-66 18l169 662h80l169 -662l-66 -18zM375 266l-74 312h-2l-74 -312h150zM236 841l177 -101l-26 -44l-187 82z" />
    <glyph glyph-name="Aring" unicode="&#xc5;" 
d="M391 206h-182l-52 -219l-66 18l169 662h80l169 -662l-66 -18zM375 266l-74 312h-2l-74 -312h150zM300 847c48 0 87 -39 87 -86c0 -48 -39 -87 -87 -87s-87 39 -87 87c0 47 39 86 87 86zM300 807c-26 0 -47 -21 -47 -46c0 -26 21 -47 47 -47s47 21 47 47
c0 25 -21 46 -47 46z" />
    <glyph glyph-name="Atilde" unicode="&#xc3;" 
d="M391 206h-182l-52 -219l-66 18l169 662h80l169 -662l-66 -18zM375 266l-74 312h-2l-74 -312h150zM403 826l51 -16c-13 -46 -31 -105 -90 -105c-31 0 -49 13 -72 31c-11 9 -33 26 -49 26c-30 0 -39 -40 -48 -62l-49 19c17 46 39 103 97 103c27 0 46 -15 66 -30
c14 -11 34 -28 52 -28c28 0 36 42 42 62z" />
    <glyph glyph-name="Ccedilla" unicode="&#xc7;" 
d="M432 138l55 -38c-35 -56 -84 -98 -148 -107l-11 -35c42 -2 80 -24 80 -71c0 -48 -50 -77 -93 -77c-34 0 -71 15 -102 29l20 51c23 -11 48 -20 74 -20c13 0 31 4 31 20c0 33 -65 30 -85 32l26 72c-143 26 -165 216 -165 339c0 133 26 343 200 343c76 0 128 -44 163 -108
l-57 -34c-21 42 -55 79 -106 79c-122 0 -130 -192 -130 -280c0 -87 8 -279 130 -279c52 0 93 43 118 84z" />
    <glyph glyph-name="Eacute" unicode="&#xc9;" 
d="M157 0v667h325v-60h-258v-220h213v-60h-213v-267h258v-60h-325zM377 841l36 -63l-187 -82l-26 44z" />
    <glyph glyph-name="Ecircumflex" unicode="&#xca;" 
d="M157 0v667h325v-60h-258v-220h213v-60h-213v-267h258v-60h-325zM300 759l-127 -62l-24 36l151 102l151 -102l-23 -36z" />
    <glyph glyph-name="Edieresis" unicode="&#xcb;" 
d="M157 0v667h325v-60h-258v-220h213v-60h-213v-267h258v-60h-325zM208 826c33 0 48 -35 48 -63s-15 -63 -48 -63s-48 35 -48 63c0 29 15 63 48 63zM392 826c33 0 48 -35 48 -63s-15 -63 -48 -63s-48 35 -48 63c0 29 15 63 48 63z" />
    <glyph glyph-name="Egrave" unicode="&#xc8;" 
d="M157 0v667h325v-60h-258v-220h213v-60h-213v-267h258v-60h-325zM236 841l177 -101l-26 -44l-187 82z" />
    <glyph glyph-name="Iacute" unicode="&#xcd;" 
d="M266 60v547h-90v60h248v-60h-91v-547h91v-60h-248v60h90zM377 841l36 -63l-187 -82l-26 44z" />
    <glyph glyph-name="Icircumflex" unicode="&#xce;" 
d="M266 60v547h-90v60h248v-60h-91v-547h91v-60h-248v60h90zM300 759l-127 -62l-24 36l151 102l151 -102l-23 -36z" />
    <glyph glyph-name="Idieresis" unicode="&#xcf;" 
d="M266 60v547h-90v60h248v-60h-91v-547h91v-60h-248v60h90zM208 826c33 0 48 -35 48 -63s-15 -63 -48 -63s-48 35 -48 63c0 29 15 63 48 63zM392 826c33 0 48 -35 48 -63s-15 -63 -48 -63s-48 35 -48 63c0 29 15 63 48 63z" />
    <glyph glyph-name="Igrave" unicode="&#xcc;" 
d="M266 60v547h-90v60h248v-60h-91v-547h91v-60h-248v60h90zM236 841l177 -101l-26 -44l-187 82z" />
    <glyph glyph-name="Ntilde" unicode="&#xd1;" 
d="M126 0v667h84l198 -561l2 2l-3 149v410h67v-667h-84l-198 562l-2 -2l3 -151v-409h-67zM403 826l51 -16c-13 -46 -31 -105 -90 -105c-31 0 -49 13 -72 31c-11 9 -33 26 -49 26c-30 0 -39 -40 -48 -62l-49 19c17 46 39 103 97 103c27 0 46 -15 66 -30c14 -11 34 -28 52 -28
c28 0 36 42 42 62z" />
    <glyph glyph-name="Oacute" unicode="&#xd3;" 
d="M300 676c188 0 185 -254 185 -342c0 -84 3 -343 -185 -343c-190 0 -185 257 -185 343c0 110 7 342 185 342zM300 613c-118 0 -115 -181 -115 -279c0 -180 21 -280 115 -280c116 0 115 164 115 280c0 126 3 279 -115 279zM377 841l36 -63l-187 -82l-26 44z" />
    <glyph glyph-name="Ocircumflex" unicode="&#xd4;" 
d="M300 676c188 0 185 -254 185 -342c0 -84 3 -343 -185 -343c-190 0 -185 257 -185 343c0 110 7 342 185 342zM300 613c-118 0 -115 -181 -115 -279c0 -180 21 -280 115 -280c116 0 115 164 115 280c0 126 3 279 -115 279zM300 759l-127 -62l-24 36l151 102l151 -102
l-23 -36z" />
    <glyph glyph-name="Odieresis" unicode="&#xd6;" 
d="M300 676c188 0 185 -254 185 -342c0 -84 3 -343 -185 -343c-190 0 -185 257 -185 343c0 110 7 342 185 342zM300 613c-118 0 -115 -181 -115 -279c0 -180 21 -280 115 -280c116 0 115 164 115 280c0 126 3 279 -115 279zM208 826c33 0 48 -35 48 -63s-15 -63 -48 -63
s-48 35 -48 63c0 29 15 63 48 63zM392 826c33 0 48 -35 48 -63s-15 -63 -48 -63s-48 35 -48 63c0 29 15 63 48 63z" />
    <glyph glyph-name="Ograve" unicode="&#xd2;" 
d="M300 676c188 0 185 -254 185 -342c0 -84 3 -343 -185 -343c-190 0 -185 257 -185 343c0 110 7 342 185 342zM300 613c-118 0 -115 -181 -115 -279c0 -180 21 -280 115 -280c116 0 115 164 115 280c0 126 3 279 -115 279zM236 841l177 -101l-26 -44l-187 82z" />
    <glyph glyph-name="Otilde" unicode="&#xd5;" 
d="M300 676c188 0 185 -254 185 -342c0 -84 3 -343 -185 -343c-190 0 -185 257 -185 343c0 110 7 342 185 342zM300 613c-118 0 -115 -181 -115 -279c0 -180 21 -280 115 -280c116 0 115 164 115 280c0 126 3 279 -115 279zM403 826l51 -16c-13 -46 -31 -105 -90 -105
c-31 0 -49 13 -72 31c-11 9 -33 26 -49 26c-30 0 -39 -40 -48 -62l-49 19c17 46 39 103 97 103c27 0 46 -15 66 -30c14 -11 34 -28 52 -28c28 0 36 42 42 62z" />
    <glyph glyph-name="Scaron" unicode="&#x160;" 
d="M461 525l-65 -10c-11 49 -35 98 -92 98c-63 0 -88 -51 -88 -107c0 -54 11 -71 116 -134c82 -49 138 -90 138 -193c0 -105 -56 -188 -168 -188c-118 0 -161 78 -171 184l67 9c9 -74 25 -130 106 -130c58 0 99 39 99 119c0 88 -57 118 -126 158c-77 45 -128 77 -128 175
c0 90 60 170 155 170c94 0 140 -67 157 -151zM173 833l127 -62l128 62l23 -36l-151 -102l-151 102z" />
    <glyph glyph-name="Uacute" unicode="&#xda;" 
d="M137 667h67v-485c0 -66 13 -128 96 -128s97 63 97 128v485h67v-505c0 -104 -65 -171 -164 -171c-101 0 -163 69 -163 168v508zM377 841l36 -63l-187 -82l-26 44z" />
    <glyph glyph-name="Ucircumflex" unicode="&#xdb;" 
d="M137 667h67v-485c0 -66 13 -128 96 -128s97 63 97 128v485h67v-505c0 -104 -65 -171 -164 -171c-101 0 -163 69 -163 168v508zM300 759l-127 -62l-24 36l151 102l151 -102l-23 -36z" />
    <glyph glyph-name="Udieresis" unicode="&#xdc;" 
d="M137 667h67v-485c0 -66 13 -128 96 -128s97 63 97 128v485h67v-505c0 -104 -65 -171 -164 -171c-101 0 -163 69 -163 168v508zM208 826c33 0 48 -35 48 -63s-15 -63 -48 -63s-48 35 -48 63c0 29 15 63 48 63zM392 826c33 0 48 -35 48 -63s-15 -63 -48 -63s-48 35 -48 63
c0 29 15 63 48 63z" />
    <glyph glyph-name="Ugrave" unicode="&#xd9;" 
d="M137 667h67v-485c0 -66 13 -128 96 -128s97 63 97 128v485h67v-505c0 -104 -65 -171 -164 -171c-101 0 -163 69 -163 168v508zM236 841l177 -101l-26 -44l-187 82z" />
    <glyph glyph-name="Yacute" unicode="&#xdd;" 
d="M300 341l144 339l62 -25l-173 -392v-263h-67v263l-172 392l62 25zM377 841l36 -63l-187 -82l-26 44z" />
    <glyph glyph-name="Ydieresis" unicode="&#x178;" 
d="M300 341l144 339l62 -25l-173 -392v-263h-67v263l-172 392l62 25zM208 826c33 0 48 -35 48 -63s-15 -63 -48 -63s-48 35 -48 63c0 29 15 63 48 63zM392 826c33 0 48 -35 48 -63s-15 -63 -48 -63s-48 35 -48 63c0 29 15 63 48 63z" />
    <glyph glyph-name="Zcaron" unicode="&#x17d;" 
d="M104 0l283 607h-254v60h355l-282 -607h290v-60h-392zM173 833l127 -62l128 62l23 -36l-151 -102l-151 102z" />
    <glyph glyph-name="aacute" unicode="&#xe1;" 
d="M393 142h-185l-49 -155l-66 24l164 510h86l164 -510l-66 -24zM374 202l-74 241l-74 -241h148zM377 695l36 -63l-187 -82l-26 44z" />
    <glyph glyph-name="acircumflex" unicode="&#xe2;" 
d="M393 142h-185l-49 -155l-66 24l164 510h86l164 -510l-66 -24zM374 202l-74 241l-74 -241h148zM300 613l-127 -62l-24 36l151 102l151 -102l-23 -36z" />
    <glyph glyph-name="adieresis" unicode="&#xe4;" 
d="M393 142h-185l-49 -155l-66 24l164 510h86l164 -510l-66 -24zM374 202l-74 241l-74 -241h148zM208 680c33 0 48 -35 48 -63s-15 -63 -48 -63s-48 35 -48 63c0 29 15 63 48 63zM392 680c33 0 48 -35 48 -63s-15 -63 -48 -63s-48 35 -48 63c0 29 15 63 48 63z" />
    <glyph glyph-name="agrave" unicode="&#xe0;" 
d="M393 142h-185l-49 -155l-66 24l164 510h86l164 -510l-66 -24zM374 202l-74 241l-74 -241h148zM236 695l177 -101l-26 -44l-187 82z" />
    <glyph glyph-name="aring" unicode="&#xe5;" 
d="M393 142h-185l-49 -155l-66 24l164 510h86l164 -510l-66 -24zM374 202l-74 241l-74 -241h148zM300 701c48 0 87 -39 87 -86c0 -48 -39 -87 -87 -87s-87 39 -87 87c0 47 39 86 87 86zM300 661c-26 0 -47 -21 -47 -46c0 -26 21 -47 47 -47s47 21 47 47c0 25 -21 46 -47 46z
" />
    <glyph glyph-name="atilde" unicode="&#xe3;" 
d="M393 142h-185l-49 -155l-66 24l164 510h86l164 -510l-66 -24zM374 202l-74 241l-74 -241h148zM403 680l51 -16c-13 -46 -31 -105 -90 -105c-31 0 -49 13 -72 31c-11 9 -33 26 -49 26c-30 0 -39 -40 -48 -62l-49 19c17 46 39 103 97 103c27 0 46 -15 66 -30
c14 -11 34 -28 52 -28c28 0 36 42 42 62z" />
    <glyph glyph-name="ccedilla" unicode="&#xe7;" 
d="M432 138l55 -38c-37 -59 -81 -99 -148 -108l-11 -34c42 -2 80 -24 80 -71c0 -48 -50 -77 -93 -77c-34 0 -71 15 -102 29l20 51c23 -11 48 -20 74 -20c13 0 31 4 31 20c0 33 -65 30 -85 32l26 72c-124 20 -165 147 -165 266c0 208 110 270 194 270c81 0 128 -42 165 -111
l-61 -31c-22 42 -52 79 -103 79c-104 0 -125 -126 -125 -206c0 -81 19 -207 125 -207c61 0 92 37 123 84z" />
    <glyph glyph-name="eacute" unicode="&#xe9;" 
d="M157 0v521h325v-60h-258v-156h213v-60h-213v-185h258v-60h-325zM377 695l36 -63l-187 -82l-26 44z" />
    <glyph glyph-name="ecircumflex" unicode="&#xea;" 
d="M157 0v521h325v-60h-258v-156h213v-60h-213v-185h258v-60h-325zM300 613l-127 -62l-24 36l151 102l151 -102l-23 -36z" />
    <glyph glyph-name="edieresis" unicode="&#xeb;" 
d="M157 0v521h325v-60h-258v-156h213v-60h-213v-185h258v-60h-325zM208 680c33 0 48 -35 48 -63s-15 -63 -48 -63s-48 35 -48 63c0 29 15 63 48 63zM392 680c33 0 48 -35 48 -63s-15 -63 -48 -63s-48 35 -48 63c0 29 15 63 48 63z" />
    <glyph glyph-name="egrave" unicode="&#xe8;" 
d="M157 0v521h325v-60h-258v-156h213v-60h-213v-185h258v-60h-325zM236 695l177 -101l-26 -44l-187 82z" />
    <glyph glyph-name="iacute" unicode="&#xed;" 
d="M193 0v60h73v401h-73v60h214v-60h-74v-401h74v-60h-214zM377 695l36 -63l-187 -82l-26 44z" />
    <glyph glyph-name="icircumflex" unicode="&#xee;" 
d="M193 0v60h73v401h-73v60h214v-60h-74v-401h74v-60h-214zM300 613l-127 -62l-24 36l151 102l151 -102l-23 -36z" />
    <glyph glyph-name="idieresis" unicode="&#xef;" 
d="M193 0v60h73v401h-73v60h214v-60h-74v-401h74v-60h-214zM208 680c33 0 48 -35 48 -63s-15 -63 -48 -63s-48 35 -48 63c0 29 15 63 48 63zM392 680c33 0 48 -35 48 -63s-15 -63 -48 -63s-48 35 -48 63c0 29 15 63 48 63z" />
    <glyph glyph-name="igrave" unicode="&#xec;" 
d="M193 0v60h73v401h-73v60h214v-60h-74v-401h74v-60h-214zM236 695l177 -101l-26 -44l-187 82z" />
    <glyph glyph-name="ntilde" unicode="&#xf1;" 
d="M126 0v521h83l202 -439l2 2l-6 135v302h67v-521h-83l-202 439l-2 -2l6 -136v-301h-67zM403 680l51 -16c-13 -46 -31 -105 -90 -105c-31 0 -49 13 -72 31c-11 9 -33 26 -49 26c-30 0 -39 -40 -48 -62l-49 19c17 46 39 103 97 103c27 0 46 -15 66 -30c14 -11 34 -28 52 -28
c28 0 36 42 42 62z" />
    <glyph glyph-name="oacute" unicode="&#xf3;" 
d="M300 530c83 0 185 -60 185 -270c0 -42 -3 -269 -185 -269c-84 0 -185 60 -185 269c0 208 99 270 185 270zM300 467c-101 0 -115 -130 -115 -207c0 -76 14 -206 115 -206s115 130 115 206c0 77 -14 207 -115 207zM377 695l36 -63l-187 -82l-26 44z" />
    <glyph glyph-name="ocircumflex" unicode="&#xf4;" 
d="M300 530c83 0 185 -60 185 -270c0 -42 -3 -269 -185 -269c-84 0 -185 60 -185 269c0 208 99 270 185 270zM300 467c-101 0 -115 -130 -115 -207c0 -76 14 -206 115 -206s115 130 115 206c0 77 -14 207 -115 207zM300 613l-127 -62l-24 36l151 102l151 -102l-23 -36z" />
    <glyph glyph-name="odieresis" unicode="&#xf6;" 
d="M300 530c83 0 185 -60 185 -270c0 -42 -3 -269 -185 -269c-84 0 -185 60 -185 269c0 208 99 270 185 270zM300 467c-101 0 -115 -130 -115 -207c0 -76 14 -206 115 -206s115 130 115 206c0 77 -14 207 -115 207zM208 680c33 0 48 -35 48 -63s-15 -63 -48 -63
s-48 35 -48 63c0 29 15 63 48 63zM392 680c33 0 48 -35 48 -63s-15 -63 -48 -63s-48 35 -48 63c0 29 15 63 48 63z" />
    <glyph glyph-name="ograve" unicode="&#xf2;" 
d="M300 530c83 0 185 -60 185 -270c0 -42 -3 -269 -185 -269c-84 0 -185 60 -185 269c0 208 99 270 185 270zM300 467c-101 0 -115 -130 -115 -207c0 -76 14 -206 115 -206s115 130 115 206c0 77 -14 207 -115 207zM236 695l177 -101l-26 -44l-187 82z" />
    <glyph glyph-name="otilde" unicode="&#xf5;" 
d="M300 530c83 0 185 -60 185 -270c0 -42 -3 -269 -185 -269c-84 0 -185 60 -185 269c0 208 99 270 185 270zM300 467c-101 0 -115 -130 -115 -207c0 -76 14 -206 115 -206s115 130 115 206c0 77 -14 207 -115 207zM403 680l51 -16c-13 -46 -31 -105 -90 -105
c-31 0 -49 13 -72 31c-11 9 -33 26 -49 26c-30 0 -39 -40 -48 -62l-49 19c17 46 39 103 97 103c27 0 46 -15 66 -30c14 -11 34 -28 52 -28c28 0 36 42 42 62z" />
    <glyph glyph-name="scaron" unicode="&#x161;" 
d="M131 146l60 19c13 -64 44 -111 114 -111c55 0 98 30 98 88c0 64 -54 80 -105 101c-76 32 -148 52 -148 150c0 88 71 137 153 137c87 0 138 -50 159 -131l-64 -19c-12 51 -39 87 -96 87c-43 0 -85 -22 -85 -69c0 -49 30 -63 70 -81l111 -49c47 -26 72 -68 72 -122
c0 -99 -69 -155 -165 -155c-97 0 -158 62 -174 155zM173 687l127 -62l128 62l23 -36l-151 -102l-151 102z" />
    <glyph glyph-name="uacute" unicode="&#xfa;" 
d="M137 521h67v-355c0 -76 22 -112 91 -112c84 0 102 37 102 112v355h67v-387c0 -69 -49 -143 -164 -143c-113 0 -163 71 -163 147v383zM377 695l36 -63l-187 -82l-26 44z" />
    <glyph glyph-name="ucircumflex" unicode="&#xfb;" 
d="M137 521h67v-355c0 -76 22 -112 91 -112c84 0 102 37 102 112v355h67v-387c0 -69 -49 -143 -164 -143c-113 0 -163 71 -163 147v383zM300 613l-127 -62l-24 36l151 102l151 -102l-23 -36z" />
    <glyph glyph-name="udieresis" unicode="&#xfc;" 
d="M137 521h67v-355c0 -76 22 -112 91 -112c84 0 102 37 102 112v355h67v-387c0 -69 -49 -143 -164 -143c-113 0 -163 71 -163 147v383zM208 680c33 0 48 -35 48 -63s-15 -63 -48 -63s-48 35 -48 63c0 29 15 63 48 63zM392 680c33 0 48 -35 48 -63s-15 -63 -48 -63
s-48 35 -48 63c0 29 15 63 48 63z" />
    <glyph glyph-name="ugrave" unicode="&#xf9;" 
d="M137 521h67v-355c0 -76 22 -112 91 -112c84 0 102 37 102 112v355h67v-387c0 -69 -49 -143 -164 -143c-113 0 -163 71 -163 147v383zM236 695l177 -101l-26 -44l-187 82z" />
    <glyph glyph-name="yacute" unicode="&#xfd;" 
d="M300 266l139 268l63 -33l-169 -300v-201h-67v201l-168 300l63 33zM377 695l36 -63l-187 -82l-26 44z" />
    <glyph glyph-name="ydieresis" unicode="&#xff;" 
d="M300 266l139 268l63 -33l-169 -300v-201h-67v201l-168 300l63 33zM208 680c33 0 48 -35 48 -63s-15 -63 -48 -63s-48 35 -48 63c0 29 15 63 48 63zM392 680c33 0 48 -35 48 -63s-15 -63 -48 -63s-48 35 -48 63c0 29 15 63 48 63z" />
    <glyph glyph-name="zcaron" unicode="&#x17e;" 
d="M104 0l273 461h-244v60h355l-271 -461h279v-60h-392zM173 687l127 -62l128 62l23 -36l-151 -102l-151 102z" />
    <glyph glyph-name="exclamsmall" unicode="&#xf721;" 
d="M331 207h-64l-18 460h102zM254 0v148h92v-148h-92z" />
    <glyph glyph-name="Hungarumlautsmall" unicode="&#xf6f8;" 
d="M265 683l41 -58l-186 -82l-31 41zM470 683l41 -58l-186 -82l-31 41z" />
    <glyph glyph-name="ampersandsmall" unicode="&#xf726;" 
d="M358 87l-110 149c-35 -24 -62 -46 -62 -92c0 -53 39 -90 92 -90c29 0 59 13 80 33zM264 319l21 15c32 23 61 46 61 89c0 44 -25 76 -72 76c-41 0 -64 -30 -64 -69c0 -34 15 -62 54 -111zM211 284l-15 20c-29 39 -49 70 -49 122c0 80 50 136 130 136
c78 0 132 -61 132 -136c0 -64 -30 -103 -109 -156l98 -133c19 29 26 64 29 98l66 -13c-6 -50 -23 -101 -53 -142l41 -57l-51 -37l-36 49c-35 -27 -74 -44 -120 -44c-87 0 -158 63 -158 152c0 67 45 106 95 141z" />
    <glyph glyph-name="Acutesmall" unicode="&#xf7b4;" 
d="M377 695l36 -63l-187 -82l-26 44z" />
    <glyph glyph-name="questionsmall" unicode="&#xf73f;" 
d="M331 220h-69v17c0 72 6 87 63 136c42 36 87 71 87 132c0 62 -36 108 -101 108c-80 0 -115 -69 -127 -138l-66 17c21 107 73 184 191 184c103 0 173 -65 173 -169c0 -77 -44 -124 -99 -171c-41 -36 -52 -44 -52 -102v-14zM250 0v148h92v-148h-92z" />
    <glyph glyph-name="nsuperior" unicode="&#x207f;" 
d="M186 328v339h64l117 -274l1 1l-4 76v197h50v-339h-64l-116 270h-2l4 -74v-196h-50z" />
    <glyph glyph-name="Circumflexsmall" unicode="&#xf6f6;" 
d="M300 613l-127 -62l-24 36l151 102l151 -102l-23 -36z" />
    <glyph glyph-name="Gravesmall" unicode="&#xf760;" 
d="M236 695l177 -101l-26 -44l-187 82z" />
    <glyph glyph-name="Asmall" unicode="&#xf761;" 
d="M393 142h-185l-49 -155l-66 24l164 510h86l164 -510l-66 -24zM374 202l-74 241l-74 -241h148z" />
    <glyph glyph-name="Bsmall" unicode="&#xf762;" 
d="M243 60h78c59 0 114 13 114 84c0 52 -34 94 -98 94h-94v-178zM243 298h75c58 0 87 37 87 84c0 62 -44 79 -91 79h-71v-163zM334 0h-212v60h54v401h-54v60h164c132 0 189 -50 189 -139c0 -45 -19 -85 -59 -107c57 -18 89 -67 89 -126c0 -94 -62 -149 -171 -149z" />
    <glyph glyph-name="Csmall" unicode="&#xf763;" 
d="M432 138l55 -38c-42 -66 -92 -109 -173 -109c-152 0 -200 140 -200 269c0 208 110 270 194 270c81 0 128 -42 165 -111l-61 -31c-22 42 -52 79 -103 79c-104 0 -125 -126 -125 -206c0 -81 19 -207 125 -207c61 0 92 37 123 84z" />
    <glyph glyph-name="Dsmall" unicode="&#xf764;" 
d="M119 461v60h174c148 0 215 -61 215 -254c0 -163 -28 -267 -215 -267h-174v60h54v401h-54zM240 461v-401h71c88 0 127 50 127 200c0 160 -46 201 -129 201h-69z" />
    <glyph glyph-name="Esmall" unicode="&#xf765;" 
d="M157 0v521h325v-60h-258v-156h213v-60h-213v-185h258v-60h-325z" />
    <glyph glyph-name="Fsmall" unicode="&#xf766;" 
d="M176 0v521h328v-60h-261v-156h219v-60h-219v-245h-67z" />
    <glyph glyph-name="Gsmall" unicode="&#xf767;" 
d="M476 278v-230c-43 -34 -107 -57 -160 -57c-153 0 -197 142 -197 270c0 126 46 269 195 269c70 0 131 -41 167 -100l-57 -37c-25 42 -63 74 -114 74c-103 0 -121 -129 -121 -208c0 -81 18 -205 123 -205c34 0 68 9 97 27v137h-125v60h192z" />
    <glyph glyph-name="Hsmall" unicode="&#xf768;" 
d="M130 0v521h67v-216h206v216h67v-521h-67v245h-206v-245h-67z" />
    <glyph glyph-name="Ismall" unicode="&#xf769;" 
d="M193 0v60h73v401h-73v60h214v-60h-74v-401h74v-60h-214z" />
    <glyph glyph-name="Jsmall" unicode="&#xf76a;" 
d="M109 194h67c-4 -102 25 -140 94 -140c68 0 101 41 101 104v363h67v-376c0 -74 -52 -154 -168 -154c-112 0 -161 64 -161 203z" />
    <glyph glyph-name="Ksmall" unicode="&#xf76b;" 
d="M229 521v-222h25l179 235l51 -40l-173 -219l203 -245l-51 -43l-211 257h-23v-244h-67v521h67z" />
    <glyph glyph-name="Lsmall" unicode="&#xf76c;" 
d="M170 0v521h67v-461h273v-60h-340z" />
    <glyph glyph-name="Msmall" unicode="&#xf76d;" 
d="M300 147l-117 275h-2l-13 -422h-71l21 521h88l94 -226l94 226h88l21 -521h-71l-13 422h-2z" />
    <glyph glyph-name="Nsmall" unicode="&#xf76e;" 
d="M126 0v521h83l202 -439l2 2l-6 135v302h67v-521h-83l-202 439l-2 -2l6 -136v-301h-67z" />
    <glyph glyph-name="Osmall" unicode="&#xf76f;" 
d="M300 530c83 0 185 -60 185 -270c0 -42 -3 -269 -185 -269c-84 0 -185 60 -185 269c0 208 99 270 185 270zM300 467c-101 0 -115 -130 -115 -207c0 -76 14 -206 115 -206s115 130 115 206c0 77 -14 207 -115 207z" />
    <glyph glyph-name="Psmall" unicode="&#xf770;" 
d="M229 224v-224h-67v521h162c121 0 168 -66 168 -142c0 -110 -78 -155 -151 -155h-112zM229 284h92c66 0 101 30 101 90c0 71 -46 87 -101 87h-92v-177z" />
    <glyph glyph-name="Qsmall" unicode="&#xf771;" 
d="M441 70l59 -54l-42 -45l-58 53c-29 -22 -63 -33 -100 -33c-83 0 -185 60 -185 269c0 199 91 270 185 270c83 0 185 -60 185 -270c0 -61 -9 -138 -44 -190zM352 68l-87 79l41 46l84 -77c19 45 25 96 25 144c0 77 -14 207 -115 207s-115 -130 -115 -207
c0 -76 14 -206 115 -206c18 0 36 5 52 14z" />
    <glyph glyph-name="Rsmall" unicode="&#xf772;" 
d="M216 283h88c65 0 108 37 108 96c0 47 -28 82 -88 82h-108v-178zM149 0v521h177c87 0 156 -41 156 -142c0 -64 -43 -127 -106 -146l128 -211l-58 -35l-133 236h-97v-223h-67z" />
    <glyph glyph-name="Ssmall" unicode="&#xf773;" 
d="M131 146l60 19c13 -64 44 -111 114 -111c55 0 98 30 98 88c0 64 -54 80 -105 101c-76 32 -148 52 -148 150c0 88 71 137 153 137c87 0 138 -50 159 -131l-64 -19c-12 51 -39 87 -96 87c-43 0 -85 -22 -85 -69c0 -49 30 -63 70 -81l111 -49c47 -26 72 -68 72 -122
c0 -99 -69 -155 -165 -155c-97 0 -158 62 -174 155z" />
    <glyph glyph-name="Tsmall" unicode="&#xf774;" 
d="M268 0v461h-144v60h352v-60h-141v-461h-67z" />
    <glyph glyph-name="Usmall" unicode="&#xf775;" 
d="M137 521h67v-355c0 -76 22 -112 91 -112c84 0 102 37 102 112v355h67v-387c0 -69 -49 -143 -164 -143c-113 0 -163 71 -163 147v383z" />
    <glyph glyph-name="Vsmall" unicode="&#xf776;" 
d="M300 152l142 382l64 -24l-200 -523h-12l-200 523l64 24z" />
    <glyph glyph-name="Wsmall" unicode="&#xf777;" 
d="M93 526l69 8l40 -366h2l87 256h18l87 -256h2l41 366l68 -8l-75 -539h-23l-109 321l-109 -321h-23z" />
    <glyph glyph-name="Xsmall" unicode="&#xf778;" 
d="M300 217l-139 -230l-60 34l161 255l-147 223l61 35l124 -198l124 198l61 -35l-147 -223l161 -255l-60 -34z" />
    <glyph glyph-name="Ysmall" unicode="&#xf779;" 
d="M300 266l139 268l63 -33l-169 -300v-201h-67v201l-168 300l63 33z" />
    <glyph glyph-name="Zsmall" unicode="&#xf77a;" 
d="M104 0l273 461h-244v60h355l-271 -461h279v-60h-392z" />
    <glyph glyph-name="Tildesmall" unicode="&#xf6fe;" 
d="M403 680l51 -16c-13 -46 -31 -105 -90 -105c-31 0 -49 13 -72 31c-11 9 -33 26 -49 26c-30 0 -39 -40 -48 -62l-49 19c17 46 39 103 97 103c27 0 46 -15 66 -30c14 -11 34 -28 52 -28c28 0 36 42 42 62z" />
    <glyph glyph-name="Lslashsmall" unicode="&#xf6f9;" 
d="M237 521v-183l87 33v-67l-87 -33v-211h273v-60h-340v246l-87 -33v67l87 33v208h67z" />
    <glyph glyph-name="Scaronsmall" unicode="&#xf6fd;" 
d="M131 146l60 19c13 -64 44 -111 114 -111c55 0 98 30 98 88c0 64 -54 80 -105 101c-76 32 -148 52 -148 150c0 88 71 137 153 137c87 0 138 -50 159 -131l-64 -19c-12 51 -39 87 -96 87c-43 0 -85 -22 -85 -69c0 -49 30 -63 70 -81l111 -49c47 -26 72 -68 72 -122
c0 -99 -69 -155 -165 -155c-97 0 -158 62 -174 155zM173 687l127 -62l128 62l23 -36l-151 -102l-151 102z" />
    <glyph glyph-name="Zcaronsmall" unicode="&#xf6ff;" 
d="M104 0l273 461h-244v60h355l-271 -461h279v-60h-392zM173 687l127 -62l128 62l23 -36l-151 -102l-151 102z" />
    <glyph glyph-name="Dieresissmall" unicode="&#xf7a8;" 
d="M208 680c33 0 48 -35 48 -63s-15 -63 -48 -63s-48 35 -48 63c0 29 15 63 48 63zM392 680c33 0 48 -35 48 -63s-15 -63 -48 -63s-48 35 -48 63c0 29 15 63 48 63z" />
    <glyph glyph-name="Brevesmall" unicode="&#xf6f4;" 
d="M392 682h60c-1 -84 -64 -124 -145 -124c-87 0 -156 28 -159 124h60c-2 -56 41 -74 92 -74c69 0 92 30 92 74z" />
    <glyph glyph-name="Caronsmall" unicode="&#xf6f5;" 
d="M173 687l127 -62l128 62l23 -36l-151 -102l-151 102z" />
    <glyph glyph-name="Dotaccentsmall" unicode="&#xf6f7;" 
d="M300 680c33 0 48 -35 48 -63s-15 -63 -48 -63s-48 35 -48 63c0 29 15 63 48 63z" />
    <glyph glyph-name="Macronsmall" unicode="&#xf7af;" 
d="M444 586h-287v60h287v-60z" />
    <glyph glyph-name="Ogoneksmall" unicode="&#xf6fb;" 
d="M361 -96v-59c-34 -13 -59 -22 -96 -22c-59 0 -120 26 -120 93c0 52 41 87 86 107h98c-29 -22 -114 -62 -114 -105c0 -30 21 -40 48 -40c34 0 68 10 98 26z" />
    <glyph glyph-name="Ringsmall" unicode="&#xf6fc;" 
d="M300 681c48 0 87 -39 87 -86c0 -48 -39 -87 -87 -87s-87 39 -87 87c0 47 39 86 87 86zM300 641c-26 0 -47 -21 -47 -46c0 -26 21 -47 47 -47s47 21 47 47c0 25 -21 46 -47 46z" />
    <glyph glyph-name="Cedillasmall" unicode="&#xf7b8;" 
d="M346 13l-18 -55c42 -2 80 -24 80 -71c0 -48 -50 -77 -93 -77c-34 0 -71 15 -102 29l20 51c23 -11 48 -20 74 -20c13 0 31 4 31 20c0 33 -65 30 -85 32l33 91h60z" />
    <glyph glyph-name="questiondownsmall" unicode="&#xf7bf;" 
d="M269 447h69v-17c0 -72 -6 -87 -63 -136c-42 -36 -87 -71 -87 -132c0 -62 36 -108 101 -108c80 0 115 69 127 138l66 -17c-21 -107 -73 -184 -191 -184c-103 0 -173 65 -173 169c0 77 44 124 99 171c41 36 52 44 52 102v14zM257 519v148h92v-148h-92z" />
    <glyph glyph-name="oneeighth" unicode="&#x215b;" 
d="M499 172c36 -18 64 -42 64 -85c0 -62 -58 -96 -115 -96s-114 34 -114 96c0 43 27 68 63 85c-28 18 -52 41 -52 76c0 57 50 92 103 92s103 -35 103 -92c0 -35 -24 -59 -52 -76zM448 144c-24 -14 -54 -25 -54 -58c0 -30 26 -45 54 -45c27 0 55 15 55 45c0 33 -31 44 -55 58
zM448 199c20 13 43 22 43 49c0 26 -17 42 -43 42s-43 -16 -43 -42c0 -27 23 -36 43 -49zM118 382v227l-62 -21l-18 45l140 47v-298h58v-50h-192v50h74zM459 680l53 -29l-377 -664l-53 26z" />
    <glyph glyph-name="threeeighths" unicode="&#x215c;" 
d="M509 172c36 -18 64 -42 64 -85c0 -62 -58 -96 -115 -96s-114 34 -114 96c0 43 27 68 63 85c-28 18 -52 41 -52 76c0 57 50 92 103 92s103 -35 103 -92c0 -35 -24 -59 -52 -76zM458 144c-24 -14 -54 -25 -54 -58c0 -30 26 -45 54 -45c27 0 55 15 55 45c0 33 -31 44 -55 58
zM458 199c20 13 43 22 43 49c0 26 -17 42 -43 42s-43 -16 -43 -42c0 -27 23 -36 43 -49zM462 680l53 -29l-377 -664l-53 26zM258 676v-42l-86 -79c48 -5 92 -37 92 -89c0 -41 -34 -144 -222 -133v50c96 -1 162 21 162 82c0 37 -40 46 -70 46c-18 0 -35 -3 -53 -6v39l92 82
h-136v50h221z" />
    <glyph glyph-name="fiveeighths" unicode="&#x215d;" 
d="M500 172c36 -18 64 -42 64 -85c0 -62 -58 -96 -115 -96s-114 34 -114 96c0 43 27 68 63 85c-28 18 -52 41 -52 76c0 57 50 92 103 92s103 -35 103 -92c0 -35 -24 -59 -52 -76zM449 144c-24 -14 -54 -25 -54 -58c0 -30 26 -45 54 -45c27 0 55 15 55 45c0 33 -31 44 -55 58
zM449 199c20 13 43 22 43 49c0 26 -17 42 -43 42s-43 -16 -43 -42c0 -27 23 -36 43 -49zM44 494v182h209v-50h-149v-73c14 4 29 7 43 7c60 0 109 -35 109 -99c0 -57 -62 -130 -168 -130h-52v50h34c73 0 126 31 126 84c0 31 -24 45 -52 45c-22 0 -39 -7 -58 -16h-42zM451 680
l53 -29l-377 -664l-53 26z" />
    <glyph glyph-name="seveneighths" unicode="&#x215e;" 
d="M487 172c36 -18 64 -42 64 -85c0 -62 -58 -96 -115 -96s-114 34 -114 96c0 43 27 68 63 85c-28 18 -52 41 -52 76c0 57 50 92 103 92s103 -35 103 -92c0 -35 -24 -59 -52 -76zM436 144c-24 -14 -54 -25 -54 -58c0 -30 26 -45 54 -45c27 0 55 15 55 45c0 33 -31 44 -55 58
zM436 199c20 13 43 22 43 49c0 26 -17 42 -43 42s-43 -16 -43 -42c0 -27 23 -36 43 -49zM70 350l141 276h-143v50h228l-175 -346zM427 680l53 -29l-377 -664l-53 26z" />
    <glyph glyph-name="Agravesmall" unicode="&#xf7e0;" 
d="M393 142h-185l-49 -155l-66 24l164 510h86l164 -510l-66 -24zM374 202l-74 241l-74 -241h148zM236 695l177 -101l-26 -44l-187 82z" />
    <glyph glyph-name="Aacutesmall" unicode="&#xf7e1;" 
d="M393 142h-185l-49 -155l-66 24l164 510h86l164 -510l-66 -24zM374 202l-74 241l-74 -241h148zM377 695l36 -63l-187 -82l-26 44z" />
    <glyph glyph-name="Acircumflexsmall" unicode="&#xf7e2;" 
d="M393 142h-185l-49 -155l-66 24l164 510h86l164 -510l-66 -24zM374 202l-74 241l-74 -241h148zM300 613l-127 -62l-24 36l151 102l151 -102l-23 -36z" />
    <glyph glyph-name="Atildesmall" unicode="&#xf7e3;" 
d="M393 142h-185l-49 -155l-66 24l164 510h86l164 -510l-66 -24zM374 202l-74 241l-74 -241h148zM403 680l51 -16c-13 -46 -31 -105 -90 -105c-31 0 -49 13 -72 31c-11 9 -33 26 -49 26c-30 0 -39 -40 -48 -62l-49 19c17 46 39 103 97 103c27 0 46 -15 66 -30
c14 -11 34 -28 52 -28c28 0 36 42 42 62z" />
    <glyph glyph-name="Adieresissmall" unicode="&#xf7e4;" 
d="M393 142h-185l-49 -155l-66 24l164 510h86l164 -510l-66 -24zM374 202l-74 241l-74 -241h148zM208 680c33 0 48 -35 48 -63s-15 -63 -48 -63s-48 35 -48 63c0 29 15 63 48 63zM392 680c33 0 48 -35 48 -63s-15 -63 -48 -63s-48 35 -48 63c0 29 15 63 48 63z" />
    <glyph glyph-name="Aringsmall" unicode="&#xf7e5;" 
d="M393 142h-185l-49 -155l-66 24l164 510h86l164 -510l-66 -24zM374 202l-74 241l-74 -241h148zM300 701c48 0 87 -39 87 -86c0 -48 -39 -87 -87 -87s-87 39 -87 87c0 47 39 86 87 86zM300 661c-26 0 -47 -21 -47 -46c0 -26 21 -47 47 -47s47 21 47 47c0 25 -21 46 -47 46z
" />
    <glyph glyph-name="AEsmall" unicode="&#xf7e6;" 
d="M291 202v259h-42l-76 -259h118zM291 0v142h-137l-48 -155l-66 24l164 510h332v-60h-178v-156h145v-60h-145v-185h178v-60h-245z" />
    <glyph glyph-name="Ccedillasmall" unicode="&#xf7e7;" 
d="M432 138l55 -38c-37 -59 -81 -99 -148 -108l-11 -34c42 -2 80 -24 80 -71c0 -48 -50 -77 -93 -77c-34 0 -71 15 -102 29l20 51c23 -11 48 -20 74 -20c13 0 31 4 31 20c0 33 -65 30 -85 32l26 72c-124 20 -165 147 -165 266c0 208 110 270 194 270c81 0 128 -42 165 -111
l-61 -31c-22 42 -52 79 -103 79c-104 0 -125 -126 -125 -206c0 -81 19 -207 125 -207c61 0 92 37 123 84z" />
    <glyph glyph-name="Egravesmall" unicode="&#xf7e8;" 
d="M157 0v521h325v-60h-258v-156h213v-60h-213v-185h258v-60h-325zM236 695l177 -101l-26 -44l-187 82z" />
    <glyph glyph-name="Eacutesmall" unicode="&#xf7e9;" 
d="M157 0v521h325v-60h-258v-156h213v-60h-213v-185h258v-60h-325zM377 695l36 -63l-187 -82l-26 44z" />
    <glyph glyph-name="Ecircumflexsmall" unicode="&#xf7ea;" 
d="M157 0v521h325v-60h-258v-156h213v-60h-213v-185h258v-60h-325zM300 613l-127 -62l-24 36l151 102l151 -102l-23 -36z" />
    <glyph glyph-name="Edieresissmall" unicode="&#xf7eb;" 
d="M157 0v521h325v-60h-258v-156h213v-60h-213v-185h258v-60h-325zM208 680c33 0 48 -35 48 -63s-15 -63 -48 -63s-48 35 -48 63c0 29 15 63 48 63zM392 680c33 0 48 -35 48 -63s-15 -63 -48 -63s-48 35 -48 63c0 29 15 63 48 63z" />
    <glyph glyph-name="Igravesmall" unicode="&#xf7ec;" 
d="M193 0v60h73v401h-73v60h214v-60h-74v-401h74v-60h-214zM236 695l177 -101l-26 -44l-187 82z" />
    <glyph glyph-name="Iacutesmall" unicode="&#xf7ed;" 
d="M193 0v60h73v401h-73v60h214v-60h-74v-401h74v-60h-214zM377 695l36 -63l-187 -82l-26 44z" />
    <glyph glyph-name="Icircumflexsmall" unicode="&#xf7ee;" 
d="M193 0v60h73v401h-73v60h214v-60h-74v-401h74v-60h-214zM300 613l-127 -62l-24 36l151 102l151 -102l-23 -36z" />
    <glyph glyph-name="Idieresissmall" unicode="&#xf7ef;" 
d="M193 0v60h73v401h-73v60h214v-60h-74v-401h74v-60h-214zM208 680c33 0 48 -35 48 -63s-15 -63 -48 -63s-48 35 -48 63c0 29 15 63 48 63zM392 680c33 0 48 -35 48 -63s-15 -63 -48 -63s-48 35 -48 63c0 29 15 63 48 63z" />
    <glyph glyph-name="Ethsmall" unicode="&#xf7f0;" 
d="M173 290v171h-54v60h174c148 0 215 -61 215 -254c0 -163 -28 -267 -215 -267h-174v60h54v170h-54v60h54zM240 290h79v-60h-79v-170h71c88 0 127 50 127 200c0 160 -46 201 -129 201h-69v-171z" />
    <glyph glyph-name="Ntildesmall" unicode="&#xf7f1;" 
d="M126 0v521h83l202 -439l2 2l-6 135v302h67v-521h-83l-202 439l-2 -2l6 -136v-301h-67zM403 680l51 -16c-13 -46 -31 -105 -90 -105c-31 0 -49 13 -72 31c-11 9 -33 26 -49 26c-30 0 -39 -40 -48 -62l-49 19c17 46 39 103 97 103c27 0 46 -15 66 -30c14 -11 34 -28 52 -28
c28 0 36 42 42 62z" />
    <glyph glyph-name="Ogravesmall" unicode="&#xf7f2;" 
d="M300 530c83 0 185 -60 185 -270c0 -42 -3 -269 -185 -269c-84 0 -185 60 -185 269c0 208 99 270 185 270zM300 467c-101 0 -115 -130 -115 -207c0 -76 14 -206 115 -206s115 130 115 206c0 77 -14 207 -115 207zM236 695l177 -101l-26 -44l-187 82z" />
    <glyph glyph-name="Oacutesmall" unicode="&#xf7f3;" 
d="M300 530c83 0 185 -60 185 -270c0 -42 -3 -269 -185 -269c-84 0 -185 60 -185 269c0 208 99 270 185 270zM300 467c-101 0 -115 -130 -115 -207c0 -76 14 -206 115 -206s115 130 115 206c0 77 -14 207 -115 207zM377 695l36 -63l-187 -82l-26 44z" />
    <glyph glyph-name="Ocircumflexsmall" unicode="&#xf7f4;" 
d="M300 530c83 0 185 -60 185 -270c0 -42 -3 -269 -185 -269c-84 0 -185 60 -185 269c0 208 99 270 185 270zM300 467c-101 0 -115 -130 -115 -207c0 -76 14 -206 115 -206s115 130 115 206c0 77 -14 207 -115 207zM300 613l-127 -62l-24 36l151 102l151 -102l-23 -36z" />
    <glyph glyph-name="Otildesmall" unicode="&#xf7f5;" 
d="M300 530c83 0 185 -60 185 -270c0 -42 -3 -269 -185 -269c-84 0 -185 60 -185 269c0 208 99 270 185 270zM300 467c-101 0 -115 -130 -115 -207c0 -76 14 -206 115 -206s115 130 115 206c0 77 -14 207 -115 207zM403 680l51 -16c-13 -46 -31 -105 -90 -105
c-31 0 -49 13 -72 31c-11 9 -33 26 -49 26c-30 0 -39 -40 -48 -62l-49 19c17 46 39 103 97 103c27 0 46 -15 66 -30c14 -11 34 -28 52 -28c28 0 36 42 42 62z" />
    <glyph glyph-name="Odieresissmall" unicode="&#xf7f6;" 
d="M300 530c83 0 185 -60 185 -270c0 -42 -3 -269 -185 -269c-84 0 -185 60 -185 269c0 208 99 270 185 270zM300 467c-101 0 -115 -130 -115 -207c0 -76 14 -206 115 -206s115 130 115 206c0 77 -14 207 -115 207zM208 680c33 0 48 -35 48 -63s-15 -63 -48 -63
s-48 35 -48 63c0 29 15 63 48 63zM392 680c33 0 48 -35 48 -63s-15 -63 -48 -63s-48 35 -48 63c0 29 15 63 48 63z" />
    <glyph glyph-name="OEsmall" unicode="&#xf6fa;" 
d="M303 521h238v-60h-178v-156h146v-60h-146v-185h178v-60h-238c-8 -3 -16 -5 -25 -7c-9 -1 -18 -2 -27 -2c-151 0 -191 145 -191 269c0 210 102 270 185 270c20 0 40 -2 58 -9zM296 68v385c-15 9 -32 14 -51 14c-101 0 -115 -130 -115 -207c0 -76 14 -206 115 -206
c19 0 36 5 51 14z" />
    <glyph glyph-name="Oslashsmall" unicode="&#xf7f8;" 
d="M200 141l165 301c-17 17 -41 25 -65 25c-101 0 -115 -130 -115 -207c0 -40 4 -81 15 -119zM399 383l-166 -303c19 -17 42 -26 67 -26c101 0 115 130 115 206c0 42 -4 84 -16 123zM396 500l21 38l50 -28l-29 -55c37 -56 47 -128 47 -195c0 -197 -91 -269 -185 -269
c-35 0 -70 10 -98 32l-21 -39l-51 27l31 57c-37 54 -46 129 -46 192c0 199 91 270 185 270c34 0 69 -10 96 -30z" />
    <glyph glyph-name="Ugravesmall" unicode="&#xf7f9;" 
d="M137 521h67v-355c0 -76 22 -112 91 -112c84 0 102 37 102 112v355h67v-387c0 -69 -49 -143 -164 -143c-113 0 -163 71 -163 147v383zM236 695l177 -101l-26 -44l-187 82z" />
    <glyph glyph-name="Uacutesmall" unicode="&#xf7fa;" 
d="M137 521h67v-355c0 -76 22 -112 91 -112c84 0 102 37 102 112v355h67v-387c0 -69 -49 -143 -164 -143c-113 0 -163 71 -163 147v383zM377 695l36 -63l-187 -82l-26 44z" />
    <glyph glyph-name="Ucircumflexsmall" unicode="&#xf7fb;" 
d="M137 521h67v-355c0 -76 22 -112 91 -112c84 0 102 37 102 112v355h67v-387c0 -69 -49 -143 -164 -143c-113 0 -163 71 -163 147v383zM300 613l-127 -62l-24 36l151 102l151 -102l-23 -36z" />
    <glyph glyph-name="Udieresissmall" unicode="&#xf7fc;" 
d="M137 521h67v-355c0 -76 22 -112 91 -112c84 0 102 37 102 112v355h67v-387c0 -69 -49 -143 -164 -143c-113 0 -163 71 -163 147v383zM208 680c33 0 48 -35 48 -63s-15 -63 -48 -63s-48 35 -48 63c0 29 15 63 48 63zM392 680c33 0 48 -35 48 -63s-15 -63 -48 -63
s-48 35 -48 63c0 29 15 63 48 63z" />
    <glyph glyph-name="Yacutesmall" unicode="&#xf7fd;" 
d="M300 266l139 268l63 -33l-169 -300v-201h-67v201l-168 300l63 33zM377 695l36 -63l-187 -82l-26 44z" />
    <glyph glyph-name="Thornsmall" unicode="&#xf7fe;" 
d="M229 112v-112h-67v521h67v-112h95c121 0 168 -66 168 -142c0 -110 -78 -155 -151 -155h-112zM229 172h92c66 0 101 30 101 90c0 71 -46 87 -101 87h-92v-177z" />
    <glyph glyph-name="Ydieresissmall" unicode="&#xf7ff;" 
d="M300 266l139 268l63 -33l-169 -300v-201h-67v201l-168 300l63 33zM208 680c33 0 48 -35 48 -63s-15 -63 -48 -63s-48 35 -48 63c0 29 15 63 48 63zM392 680c33 0 48 -35 48 -63s-15 -63 -48 -63s-48 35 -48 63c0 29 15 63 48 63z" />
    <glyph glyph-name="Eng" unicode="&#x14a;" 
d="M193 500v-500h-67v667h67v-40c25 31 64 49 115 49c166 0 173 -120 173 -229v-324c0 -90 -1 -201 -183 -210v63c96 4 116 27 116 147v324c0 141 -26 166 -116 166c-69 0 -97 -52 -105 -113z" />
    <glyph glyph-name="Hbar" unicode="&#x126;" 
d="M403 387v110h-206v-110h206zM197 557h206v110h67v-110h65v-60h-65v-497h-67v327h-206v-327h-67v497h-65v60h65v110h67v-110z" />
    <glyph glyph-name="IJ" unicode="&#x132;" 
d="M26 0v60h74v547h-74v60h215v-60h-74v-547h74v-60h-215zM249 242h67c-8 -148 25 -188 81 -188c80 0 81 96 81 153v460h67v-473c0 -167 -73 -203 -146 -203c-92 0 -150 31 -150 251z" />
    <glyph glyph-name="Ldot" unicode="&#x13f;" 
d="M169 0v667h67v-607h274v-60h-341zM454 304v128h82v-128h-82z" />
    <glyph glyph-name="Tbar" unicode="&#x166;" 
d="M476 607h-141v-224h118v-60h-118v-323h-67v323h-118v60h118v224h-144v60h352v-60z" />
    <glyph glyph-name="dcroat" unicode="&#x111;" 
d="M173 461h-54v60h174c148 0 215 -61 215 -254c0 -163 -28 -267 -215 -267h-174v60h54v171h-54v60h54v170zM309 461h-69v-170h79v-60h-79v-171h71c88 0 127 50 127 200c0 160 -46 201 -129 201z" />
    <glyph glyph-name="eng" unicode="&#x14b;" 
d="M193 521v-38c27 27 64 47 115 47c166 0 173 -172 173 -298c0 -116 5 -301 -183 -300v60c77 0 116 19 116 241c0 191 -46 237 -116 237c-50 0 -105 -36 -105 -90v-380h-67v521h67z" />
    <glyph glyph-name="hbar" unicode="&#x127;" 
d="M403 382h-206v-77h206v77zM403 245h-206v-245h-67v382h-70v60h70v79h67v-79h206v79h67v-79h70v-60h-70v-382h-67v245z" />
    <glyph glyph-name="ij" unicode="&#x133;" 
d="M23 0v60h63v401h-63v60h194v-60h-64v-401h64v-60h-194zM239 242h67v-60c0 -60 12 -128 81 -128c73 0 81 81 81 137v330h67v-335c0 -155 -71 -195 -146 -195c-119 0 -150 85 -150 178v73z" />
    <glyph glyph-name="ldot" unicode="&#x140;" 
d="M170 0v521h67v-461h273v-60h-340zM460 228v123h82v-123h-82z" />
    <glyph glyph-name="tbar" unicode="&#x167;" 
d="M476 461h-141v-147h100v-60h-100v-254h-67v254h-100v60h100v147h-144v60h352v-60z" />
    <glyph glyph-name="kgreenlandic" unicode="&#x138;" 
d="M229 521v-222h25l127 167c17 21 47 50 69 56c28 8 54 8 78 8v-55c-22 1 -39 2 -62 -9c-17 -8 -30 -26 -42 -42l-113 -149l203 -245l-51 -43l-211 257h-23v-244h-67v521h67z" />
    <glyph glyph-name="napostrophe" unicode="&#x149;" 
d="M89 667h92v-45c0 -67 -50 -130 -111 -162l-23 55c34 22 42 56 42 91v61zM212 0v521h83l202 -439l2 2l-6 135v302h67v-521h-83l-202 439l-2 -2l6 -136v-301h-67z" />
    <glyph glyph-name="Delta" unicode="&#x2206;" 
d="M17 0l-1 46l247 633h75l246 -632v-47h-567zM83 51h430l-147 383c-19 49 -51 139 -65 181h-4c-10 -31 -42 -114 -60 -163z" />
    <glyph glyph-name="Omega" unicode="&#x2126;" 
d="M169 51v2c-79 58 -151 159 -151 297c0 218 150 320 284 320c169 0 280 -133 280 -317c0 -143 -77 -248 -153 -300v-2h168v-51h-255v38c87 46 175 149 174 306c0 156 -76 276 -213 276c-127 0 -220 -103 -220 -279c0 -147 87 -258 175 -303v-38h-255v51h166z" />
    <glyph glyph-name="pi" unicode="&#x3c0;" 
d="M549 437h-80v-291c0 -86 8 -121 16 -146h-64c-9 14 -17 52 -17 137v300h-168c-7 -127 -42 -353 -81 -437h-64c40 98 74 305 80 437c-72 0 -92 -5 -116 -14l-11 41c27 15 59 26 138 26h374z" />
    <glyph glyph-name="underscoredbl" unicode="&#x2017;" 
d="M600 -108h-600v36h600v-36zM600 -216h-600v36h600v-36z" />
    <glyph glyph-name="exclamdbl" unicode="&#x203c;" 
d="M204 207h-64l-18 460h102zM380 0v148h92v-148h-92zM458 207h-64l-18 460h102zM127 0v148h92v-148h-92z" />
    <glyph glyph-name="franc" unicode="&#x20a3;" 
d="M332 283h70c51 3 80 37 80 96c0 47 -17 82 -65 82h-85v-178zM272 0v521h147c69 0 123 -41 123 -142c0 -64 -34 -127 -84 -146l101 -211l-51 -35l-105 236h-71v-223h-60zM16 0v667h268v-60h-201v-220h159v-60h-159v-327h-67z" />
    <glyph glyph-name="Euro" unicode="&#x20ac;" 
d="M553 622v-70c-35 33 -93 61 -171 61c-129 0 -195 -87 -209 -189h332l-21 -53h-319c-1 -9 -2 -23 -2 -36c0 -14 1 -28 2 -38h290l-21 -53h-261c19 -119 91 -192 210 -192c77 0 132 27 170 61v-71c-28 -24 -92 -50 -178 -50c-149 0 -245 83 -271 252h-76l21 53h49
c-1 9 -1 26 -1 38c0 14 0 27 1 36h-70l21 53h54c22 137 101 251 272 251c83 0 147 -27 178 -53z" />
    <glyph glyph-name="estimated" unicode="&#x212e;" 
d="M604 258h-491c-2 0 -4 -1 -4 -3v-149c0 -6 2 -12 6 -17c48 -49 113 -80 186 -80c78 0 147 35 195 90h44c-54 -64 -142 -105 -240 -105c-167 0 -303 121 -303 271c0 151 136 273 303 273c168 0 304 -122 304 -273v-7zM492 277v150c0 6 -2 13 -7 17c-48 47 -112 78 -184 78
s-137 -31 -185 -80c-5 -5 -7 -11 -7 -18v-147c0 -1 2 -5 4 -5h376c2 0 3 4 3 5z" />
    <glyph glyph-name="partialdiff" unicode="&#x2202;" 
d="M125 643l-25 43c34 26 89 54 174 54c137 0 263 -123 263 -359c0 -200 -89 -387 -272 -387c-140 0 -202 120 -202 220c0 144 105 237 223 237c105 0 170 -77 186 -107h1c2 14 2 35 2 48c0 184 -97 298 -206 298c-68 0 -115 -26 -144 -47zM270 45h1c107 0 177 115 192 238
c-16 44 -78 118 -167 118c-92 0 -169 -82 -169 -185c0 -95 57 -171 143 -171z" />
    <glyph glyph-name="product" unicode="&#x220f;" 
d="M594 609h-82v-695h-63v695h-298v-695h-63v695h-82v55h588v-55z" />
    <glyph glyph-name="summation" unicode="&#x2211;" 
d="M199 607l185 -256l-191 -291h279v-60h-344v67l184 286l-184 248v66h341v-60h-270z" />
    <glyph glyph-name="uni2219" unicode="&#x2219;" 
d="M254 279v108h92v-108h-92z" />
    <glyph glyph-name="radical" unicode="&#x221a;" 
d="M581 786l-236 -924h-60l-172 443l-79 -30l-15 39l134 52l144 -377c7 -19 12 -42 17 -60h1c3 17 9 41 14 61l202 796h50z" />
    <glyph glyph-name="infinity" unicode="&#x221e;" 
d="M459 125c-64 0 -108 46 -158 117c-20 -27 -41 -58 -67 -81c-25 -22 -54 -36 -94 -36c-79 0 -142 66 -142 150c0 104 77 152 148 152c57 0 94 -34 127 -75c11 -13 21 -28 32 -42c45 66 88 117 161 117c76 0 136 -62 136 -148v-1c0 -93 -66 -153 -143 -153zM462 385h-1
c-47 0 -79 -36 -105 -69c-9 -13 -18 -25 -28 -38c50 -71 86 -110 135 -110c62 0 92 55 92 107c0 70 -42 110 -93 110zM138 385c-46 0 -93 -34 -93 -111c0 -58 37 -106 101 -106h1c57 0 97 66 128 106c-37 54 -79 111 -137 111z" />
    <glyph glyph-name="integral" unicode="&#x222b;" 
d="M468 794l-12 -43c-8 6 -26 11 -40 11c-16 0 -39 -5 -53 -21c-28 -30 -38 -82 -38 -171c0 -147 15 -329 15 -479c0 -104 -23 -159 -46 -190c-21 -30 -58 -46 -95 -46c-25 0 -55 10 -67 18l13 44c9 -4 28 -13 50 -13c17 0 37 8 49 21c22 26 39 67 39 167
c0 152 -15 337 -15 484c0 101 14 160 54 198c26 25 58 35 90 35c21 0 46 -9 56 -15z" />
    <glyph glyph-name="approxequal" unicode="&#x2248;" 
d="M520 493l27 -24c-29 -51 -69 -93 -133 -93c-45 0 -74 17 -126 44c-32 17 -65 35 -101 35c-50 0 -80 -37 -108 -76l-28 24c33 58 84 93 143 93c51 0 89 -28 119 -43c38 -19 62 -35 103 -35c44 0 73 24 104 75zM520 342l27 -25c-29 -50 -68 -92 -133 -92
c-45 0 -74 17 -126 44c-33 18 -65 35 -101 35c-51 0 -80 -37 -108 -77l-28 25c33 58 84 93 143 93c51 0 89 -26 119 -42c35 -18 61 -36 104 -36c44 0 71 24 103 75z" />
    <glyph glyph-name="notequal" unicode="&#x2260;" 
d="M424 556l-58 -105h199v-44h-223l-52 -93h275v-44h-298l-66 -125l-34 17l57 108h-190v44h215l51 93h-266v44h289c23 43 47 85 67 122c11 -5 23 -11 34 -17z" />
    <glyph glyph-name="lessequal" unicode="&#x2264;" 
d="M542 86l-482 228v44l482 228v-50l-433 -198v-2l433 -200v-50zM545 1h-491v43h491v-43z" />
    <glyph glyph-name="greaterequal" unicode="&#x2265;" 
d="M61 586l481 -228v-44l-481 -228v50l432 199v2l-432 199v50zM544 1h-489v43h489v-43z" />
    <glyph glyph-name="lozenge" unicode="&#x25ca;" 
d="M540 334l-215 -377h-51l-214 377l214 378h51zM481 333l-161 283c-8 14 -16 33 -20 45h-2c-5 -14 -12 -29 -20 -45l-160 -280l162 -285c10 -17 16 -33 18 -44h4c3 11 11 32 18 44z" />
    <glyph glyph-name="uni02C9" unicode="&#x2c9;" 
d="M444 586h-287v60h287v-60z" />
    <glyph glyph-name="uniF638" unicode="&#xf638;" 
d="M173 41l-31 -57l-51 27l47 86c-24 75 -23 158 -23 236c0 167 -2 343 186 343c47 0 92 -17 126 -49l31 58l52 -27l-47 -86c25 -74 24 -155 24 -232c0 -164 2 -349 -186 -349c-49 0 -93 17 -128 50zM412 478l-203 -371c17 -34 55 -53 92 -53c69 0 116 19 116 279
c0 48 -3 97 -5 145zM192 193l199 369c-17 33 -54 51 -90 51c-67 0 -116 -18 -116 -267c0 -50 3 -101 5 -151v-2h2z" />
    <glyph glyph-name="uniF67B" unicode="&#xf67b;" 
d="M193 521v-38c27 27 64 47 115 47c166 0 173 -172 173 -298c0 -116 5 -301 -183 -300v60c77 0 116 19 116 241c0 191 -46 237 -116 237c-50 0 -105 -36 -105 -90v-380h-67v521h67z" />
    <glyph glyph-name="uniF681" unicode="&#xf681;" 
d="M403 382h-206v-77h206v77zM403 245h-206v-245h-67v382h-70v60h70v79h67v-79h206v79h67v-79h70v-60h-70v-382h-67v245z" />
    <glyph glyph-name="uniF68D" unicode="&#xf68d;" 
d="M170 0v521h67v-461h273v-60h-340zM460 228v123h82v-123h-82z" />
    <glyph glyph-name="uniF69C" unicode="&#xf69c;" 
d="M476 461h-141v-147h100v-60h-100v-254h-67v254h-100v60h100v147h-144v60h352v-60z" />
    <glyph glyph-name="SM700000" unicode="&#xe003;" 
d="M100 260v200h400v-200h-400z" />
    <glyph glyph-name="afii61289" unicode="&#x2113;" 
d="M492 148l33 -28c-46 -83 -114 -124 -196 -124c-115 0 -165 85 -170 175c-1 4 -1 8 -1 11c-19 -14 -41 -32 -62 -47l-21 38c29 23 57 43 83 65v264c0 177 83 229 156 229c89 0 129 -73 129 -154c0 -123 -90 -237 -225 -357l1 -24c4 -106 62 -150 123 -150
c70 0 124 55 150 102zM218 512v-231c98 97 176 192 176 292c0 63 -21 111 -81 111c-41 0 -95 -42 -95 -172z" />
    <glyph glyph-name="Ssmall_Ssmall" unicode="&#xe004;" 
d="M277 248v60c44 6 65 45 65 87c0 44 -17 72 -64 72c-62 0 -65 -46 -65 -95v-372h-67v419c0 40 42 111 139 111c77 0 127 -52 127 -128c0 -43 -17 -89 -55 -111c63 -17 97 -78 97 -140c0 -111 -76 -151 -135 -151h-61v60h46c54 0 80 29 80 88c0 69 -38 102 -107 100z" />
    <glyph glyph-name="uni2502" unicode="&#x2502;" 
d="M264 -288v1080h72v-1080h-72z" />
    <glyph glyph-name="uni2558" unicode="&#x2558;" 
d="M264 144v648h72v-432h264v-72h-264v-72h264v-72h-336z" />
    <glyph glyph-name="uni25D9" unicode="&#x25d9;" 
d="M0 -288v1080h600v-1080h-600zM71 252c0 -126 103 -229 229 -229s229 103 229 229s-103 229 -229 229s-229 -103 -229 -229zM113 252c0 102 84 187 187 187s187 -85 187 -187c0 -103 -84 -187 -187 -187s-187 84 -187 187z" />
    <glyph glyph-name="uni2304" unicode="&#x2304;" 
d="M110 680h50l140 -275l137 275h50l-161 -323h-52z" />
    <glyph glyph-name="uni2552" unicode="&#x2552;" 
d="M264 -288v648h336v-72h-264v-72h264v-72h-264v-432h-72z" />
    <glyph glyph-name="uni2559" unicode="&#x2559;" 
d="M192 216v576h72v-504h72v504h72v-504h192v-72h-408z" />
    <glyph glyph-name="uni2562" unicode="&#x2562;" 
d="M0 216v72h192v504h72v-1080h-72v504h-192zM336 -288v1080h72v-1080h-72z" />
    <glyph glyph-name="uni2553" unicode="&#x2553;" 
d="M600 288v-72h-192v-504h-72v504h-72v-504h-72v576h408z" />
    <glyph glyph-name="uni2555" unicode="&#x2555;" 
d="M336 360v-648h-72v432h-264v72h264v72h-264v72h336z" />
    <glyph glyph-name="Fsmall_Lsmall" unicode="&#xe001;" 
d="M430 521v-461h160v-60h-227v461h-220v-156h152v-60h-152v-245h-67v521h354z" />
    <glyph glyph-name="uni251C" unicode="&#x251c;" 
d="M264 -288v1080h72v-504h264v-72h-264v-504h-72z" />
    <glyph glyph-name="emdash.alt" unicode="&#xe005;" 
d="M0 216v72h600v-72h-600z" />
    <glyph glyph-name="uni2302" unicode="&#x2302;" 
d="M590 0h-580v406l290 169l290 -169v-406zM40 30h520v361l-260 152l-260 -152v-361z" />
    <glyph glyph-name="uni255B" unicode="&#x255b;" 
d="M336 792v-648h-336v72h264v72h-264v72h264v432h72z" />
    <glyph glyph-name="uni2564" unicode="&#x2564;" 
d="M0 144v72h600v-72h-264v-432h-72v432h-264zM0 288v72h600v-72h-600z" />
    <glyph glyph-name="uni03BC" unicode="&#x3bc;" 
d="M402 0v44c-23 -32 -60 -53 -100 -53c-41 0 -78 17 -103 49v-251h-67v732h67v-344c0 -101 71 -123 98 -123c76 0 105 82 105 144v323h67v-521h-67z" />
    <glyph glyph-name="uni266C" unicode="&#x266c;" 
d="M545 202v280l-309 -93v-241c0 -121 -67 -175 -156 -175c-41 0 -69 22 -69 63c0 65 63 118 125 118c18 0 40 -4 56 -11v469l397 112v-517c0 -121 -67 -175 -156 -175c-41 0 -69 22 -69 63c0 65 63 118 125 118c18 0 40 -4 56 -11zM236 468l309 94v72l-309 -94v-72z" />
    <glyph glyph-name="uni2215" unicode="&#x2215;" 
d="M462 680l53 -29l-377 -664l-53 26z" />
    <glyph glyph-name="uni2560" unicode="&#x2560;" 
d="M192 -288v1080h72v-1080h-72zM336 -288v504h264v-72h-192v-432h-72zM336 288v504h72v-432h192v-72h-264z" />
    <glyph glyph-name="uni25BC" unicode="&#x25bc;" 
d="M46 596l254 -474l254 474h-508z" />
    <glyph glyph-name="uni255D" unicode="&#x255d;" 
d="M0 144v72h336v576h72v-648h-408zM0 288v72h192v432h72v-504h-264z" />
    <glyph glyph-name="uni2319" unicode="&#x2319;" 
d="M30 276h44v-232h496v-44h-540v276z" />
    <glyph glyph-name="Fsmall_Ismall" unicode="&#xe000;" 
d="M540 521v-60h-73v-401h73v-60h-213v60h73v401h-243v-156h152v-60h-152v-245h-67v521h450z" />
    <glyph glyph-name="uni2640" unicode="&#x2640;" 
d="M318 0h-36v171h-126v36h126v109c-87 15 -144 84 -144 164c0 89 73 160 162 160c91 0 162 -71 162 -160c0 -80 -55 -149 -144 -164v-109h126v-36h-126v-171zM170 478c0 -73 57 -130 129 -130c74 0 131 57 131 130s-57 130 -131 130c-72 0 -129 -57 -129 -130z" />
    <glyph glyph-name="uni250C" unicode="&#x250c;" 
d="M264 -288v576h336v-72h-264v-504h-72z" />
    <glyph glyph-name="uni2662" unicode="&#x2662;" 
d="M300 712c84 -129 188 -249 297 -362c-109 -113 -213 -233 -297 -362c-84 129 -188 249 -297 362c109 113 213 233 297 362zM300 11c76 119 175 232 277 339c-102 107 -201 220 -277 339c-76 -119 -175 -232 -277 -339c102 -107 201 -220 277 -339z" />
    <glyph glyph-name="uni255A" unicode="&#x255a;" 
d="M192 144v648h72v-576h336v-72h-408zM336 288v504h72v-432h192v-72h-264z" />
    <glyph glyph-name="uni201B" unicode="&#x201b;" 
d="M216 667h92v-61c0 -35 8 -69 42 -91l-23 -55c-61 32 -111 95 -111 162v45z" />
    <glyph glyph-name="uni253C" unicode="&#x253c;" 
d="M0 216v72h264v504h72v-504h264v-72h-264v-504h-72v504h-264z" />
    <glyph glyph-name="uni03A9" unicode="&#x3a9;" 
d="M169 51v2c-79 58 -151 159 -151 297c0 218 150 320 284 320c169 0 280 -133 280 -317c0 -143 -77 -248 -153 -300v-2h168v-51h-255v38c87 46 175 149 174 306c0 156 -76 276 -213 276c-127 0 -220 -103 -220 -279c0 -147 87 -258 175 -303v-38h-255v51h166z" />
    <glyph glyph-name="uni2554" unicode="&#x2554;" 
d="M192 -288v648h408v-72h-336v-576h-72zM336 -288v504h264v-72h-192v-432h-72z" />
    <glyph glyph-name="uni2593" unicode="&#x2593;" 
d="M138 -92h-138v97h138v-97zM200 -190h-138v97h138v-97zM200 6h-138v97h138v-97zM138 -288h-138v97h138v-97zM338 -92h-138v97h138v-97zM400 -190h-138v97h138v-97zM400 6h-138v97h138v-97zM338 -288h-138v97h138v-97zM538 -92h-138v97h138v-97zM600 -190h-138v97h138v-97z
M600 6h-138v97h138v-97zM538 -288h-138v97h138v-97zM200 597h-138v97h138v-97zM138 695h-138v97h138v-97zM138 499h-138v97h138v-97zM400 597h-138v97h138v-97zM338 695h-138v97h138v-97zM338 499h-138v97h138v-97zM600 597h-138v97h138v-97zM538 695h-138v97h138v-97z
M538 499h-138v97h138v-97zM138 105h-138v97h138v-97zM200 203h-138v97h138v-97zM338 105h-138v97h138v-97zM400 203h-138v97h138v-97zM538 105h-138v97h138v-97zM600 203h-138v97h138v-97zM138 302h-138v97h138v-97zM200 400h-138v97h138v-97zM338 302h-138v97h138v-97z
M400 400h-138v97h138v-97zM538 302h-138v97h138v-97zM600 400h-138v97h138v-97z" />
    <glyph glyph-name="exclamdowsmall" unicode="&#xe006;" 
d="M249 519v148h92v-148h-92zM326 460l20 -460h-102l18 460h64z" />
    <glyph glyph-name="uni2663" unicode="&#x2663;" 
d="M503 0h-406l6 21c109 25 192 72 192 275h-2c-21 -64 -80 -138 -153 -138c-88 0 -137 83 -137 162c0 64 40 160 109 160c35 0 62 -15 86 -30c-19 37 -32 64 -32 106c0 72 48 156 134 156s134 -84 134 -156c0 -42 -13 -69 -32 -106c24 15 51 30 86 30
c69 0 109 -96 109 -160c0 -79 -49 -162 -137 -162c-73 0 -132 74 -153 138h-2c0 -203 83 -250 192 -275z" />
    <glyph glyph-name="uni0393" unicode="&#x393;" 
d="M160 667h333v-60h-266v-607h-67v667z" />
    <glyph glyph-name="uni2551" unicode="&#x2551;" 
d="M192 -288v1080h72v-1080h-72zM336 -288v1080h72v-1080h-72z" />
    <glyph glyph-name="uni2193" unicode="&#x2193;" 
d="M322 656v-460c23 15 98 49 123 49c8 0 16 -5 16 -14s-14 -17 -20 -21c-46 -31 -95 -77 -123 -125c-3 -6 -10 -21 -18 -21s-15 15 -18 21c-28 48 -77 94 -123 125c-6 4 -20 12 -20 21s8 14 16 14c25 0 100 -34 123 -49v460h44z" />
    <glyph glyph-name="uni2565" unicode="&#x2565;" 
d="M0 216v72h600v-72h-192v-504h-72v504h-72v-504h-72v504h-192z" />
    <glyph glyph-name="uni03C3" unicode="&#x3c3;" 
d="M527 530v-63l-150 11c63 -52 92 -140 92 -223c0 -203 -142 -264 -195 -264c-129 0 -201 147 -201 271c0 70 24 150 70 202c56 65 123 66 199 66h185zM399 265c0 78 -40 202 -128 202c-89 0 -128 -124 -128 -203c0 -111 56 -210 129 -210c43 0 127 54 127 211z" />
    <glyph glyph-name="uni203E" unicode="&#x203e;" 
d="M450 728h-300v36h300v-36z" />
    <glyph glyph-name="uni2500" unicode="&#x2500;" 
d="M0 216v72h600v-72h-600z" />
    <glyph glyph-name="uni2195" unicode="&#x2195;" 
d="M278 196v328c-23 -15 -98 -49 -123 -49c-8 0 -16 5 -16 14s14 17 20 21c46 31 95 77 123 125c3 6 10 21 18 21s15 -15 18 -21c28 -48 77 -94 123 -125c6 -4 20 -12 20 -21s-8 -14 -16 -14c-25 0 -100 34 -123 49v-328c23 15 98 49 123 49c8 0 16 -5 16 -14
s-14 -17 -20 -21c-46 -31 -95 -77 -123 -125c-3 -6 -10 -21 -18 -21s-15 15 -18 21c-28 48 -77 94 -123 125c-6 4 -20 12 -20 21s8 14 16 14c25 0 100 -34 123 -49z" />
    <glyph glyph-name="uni2561" unicode="&#x2561;" 
d="M0 144v72h264v72h-264v72h264v432h72v-1080h-72v432h-264z" />
    <glyph glyph-name="uni2569" unicode="&#x2569;" 
d="M0 144v72h600v-72h-600zM0 288v72h192v432h72v-504h-264zM336 288v504h72v-432h192v-72h-264z" />
    <glyph glyph-name="uni00AD" unicode="&#xad;" 
d="M189 229v63h222v-63h-222z" />
    <glyph glyph-name="uni25D8" unicode="&#x25d8;" 
d="M0 -288v1080h600v-1080h-600zM177 252c0 -69 54 -123 123 -123c67 0 123 54 123 123c0 67 -56 123 -123 123s-123 -56 -123 -123z" />
    <glyph glyph-name="uni25A0" unicode="&#x25a0;" 
d="M100 100v400h400v-400h-400z" />
    <glyph glyph-name="uni2320" unicode="&#x2320;" 
d="M279 274v264c0 136 -12 508 185 508c77 0 136 -70 136 -139c0 -26 -9 -58 -41 -58c-72 0 -25 157 -106 157c-23 0 -55 -6 -82 -67c-27 -62 -48 -179 -48 -251v-414h-44z" />
    <glyph glyph-name="uni2642" unicode="&#x2642;" 
d="M305 140c51 52 51 132 0 183c-52 53 -133 53 -184 1c-52 -52 -52 -132 1 -184c50 -51 131 -51 183 0zM315 359l170 171l-104 38v2h170v-170h-2l-39 104l-170 -170c51 -72 42 -161 -14 -218c-63 -63 -165 -61 -228 2c-64 64 -64 164 -1 227c56 57 144 67 218 14z" />
    <glyph glyph-name="uni2518" unicode="&#x2518;" 
d="M336 792v-576h-336v72h264v504h72z" />
    <glyph glyph-name="uni2514" unicode="&#x2514;" 
d="M264 216v576h72v-504h264v-72h-336z" />
    <glyph glyph-name="uni0044_uni004D" unicode="&#xe007;" 
d="M375 667l68 -273h2l68 273h79v-667h-60v536h-2l-85 -325h-2l-85 325h-2v-536h-60v667h79zM46 607h-39v60h126c96 0 152 -59 152 -334c0 -147 -6 -333 -151 -333h-127v60h39v547zM106 607v-547h27c48 0 92 21 92 273c0 254 -48 274 -81 274h-38z" />
    <glyph glyph-name="uni256A" unicode="&#x256a;" 
d="M0 144v72h264v72h-264v72h264v432h72v-432h264v-72h-264v-72h264v-72h-264v-432h-72v432h-264z" />
    <glyph glyph-name="uni20A7" unicode="&#x20a7;" 
d="M417 0v268h-77v55h213v-55h-76v-268h-60zM114 297v-297h-67v667h145c118 0 184 -63 184 -177c0 -124 -70 -193 -162 -193h-100zM114 607v-250h94c62 0 98 49 98 133c0 82 -43 117 -115 117h-77z" />
    <glyph glyph-name="uni2534" unicode="&#x2534;" 
d="M0 216v72h264v504h72v-504h264v-72h-600z" />
    <glyph glyph-name="uni2556" unicode="&#x2556;" 
d="M0 216v72h408v-576h-72v504h-72v-504h-72v504h-192z" />
    <glyph glyph-name="uni263B" unicode="&#x263b;" 
d="M10 330c0 162 127 290 290 290s290 -128 290 -290s-127 -290 -290 -290s-290 128 -290 290zM132 429c0 -28 22 -50 50 -50s50 22 50 50s-22 50 -50 50s-50 -22 -50 -50zM368 429c0 -28 22 -50 50 -50s50 22 50 50s-22 50 -50 50s-50 -22 -50 -50zM300 110
c46 0 102 16 140 62c34 40 13 89 -2 62c-42 -76 -96 -90 -138 -90s-96 14 -138 90c-15 27 -36 -22 -2 -62c38 -46 94 -62 140 -62z" />
    <glyph glyph-name="uni2524" unicode="&#x2524;" 
d="M0 216v72h264v504h72v-1080h-72v504h-264z" />
    <glyph glyph-name="uni255C" unicode="&#x255c;" 
d="M408 792v-576h-408v72h192v504h72v-504h72v504h72z" />
    <glyph glyph-name="uni25C0" unicode="&#x25c0;" 
d="M537 614v-508l-474 254z" />
    <glyph glyph-name="uni0398" unicode="&#x398;" 
d="M300 -9c-113 0 -255 114 -255 342c0 236 148 343 255 343c115 0 255 -113 255 -343c0 -232 -145 -342 -255 -342zM300 616c-79 0 -188 -85 -188 -283c0 -219 126 -282 188 -282c70 0 188 79 188 282c0 213 -125 283 -188 283zM181 369h237v-60h-237v60z" />
    <glyph glyph-name="uni2194" unicode="&#x2194;" 
d="M464 338h-328c15 -23 49 -98 49 -123c0 -8 -5 -16 -14 -16s-17 14 -21 20c-31 46 -77 95 -125 123c-6 3 -21 10 -21 18s15 15 21 18c48 28 94 77 125 123c4 6 12 20 21 20s14 -8 14 -16c0 -25 -34 -100 -49 -123h328c-15 23 -49 98 -49 123c0 8 5 16 14 16s17 -14 21 -20
c31 -46 77 -95 125 -123c6 -3 21 -10 21 -18s-15 -15 -21 -18c-48 -28 -94 -77 -125 -123c-4 -6 -12 -20 -21 -20s-14 8 -14 16c0 25 34 100 49 123z" />
    <glyph glyph-name="uni03B5" unicode="&#x3b5;" 
d="M332 310v-60c-89 3 -171 -54 -171 -113c0 -35 42 -86 145 -86c77 0 123 39 155 75l48 -45c-50 -57 -109 -90 -205 -90c-124 0 -213 63 -213 152c0 69 57 119 148 140c-66 21 -115 62 -115 117c0 71 80 130 181 130c62 0 120 -18 150 -45l-42 -41c-20 16 -74 26 -104 26
c-76 0 -115 -24 -115 -68c0 -48 51 -91 138 -92z" />
    <glyph glyph-name="uni2566" unicode="&#x2566;" 
d="M0 144v72h264v-504h-72v432h-192zM0 288v72h600v-72h-600zM336 -288v504h264v-72h-192v-432h-72z" />
    <glyph glyph-name="uni03C4" unicode="&#x3c4;" 
d="M492 521v-60h-154v-461h-67v461h-69c-32 0 -64 -1 -95 -12v56c25 8 55 16 86 16h299z" />
    <glyph glyph-name="uni22C5" unicode="&#x22c5;" 
d="M250 360c0 20 16 36 36 36s36 -16 36 -36s-16 -36 -36 -36s-36 16 -36 36z" />
    <glyph glyph-name="uni256B" unicode="&#x256b;" 
d="M0 216v72h192v504h72v-504h72v504h72v-504h192v-72h-192v-504h-72v504h-72v-504h-72v504h-192z" />
    <glyph glyph-name="uni266A" unicode="&#x266a;" 
d="M286 181v531h44v-63l23 -29l39 -46c62 -75 102 -147 102 -246c0 -58 -21 -122 -59 -166h-29c29 49 43 96 43 154c0 73 -39 168 -119 181v-314c0 -117 -67 -173 -155 -173c-41 0 -69 22 -69 64c0 64 62 118 124 118c18 0 40 -4 56 -11z" />
    <glyph glyph-name="uni03D5" unicode="&#x3d5;" 
d="M270 59v404c-74 -24 -85 -134 -85 -203c0 -68 11 -178 85 -201zM330 462v-403c74 23 85 133 85 201c0 69 -11 179 -85 202zM330 610v-80c76 -13 155 -85 155 -270c0 -40 -3 -246 -155 -269v-71h-60v71c-76 13 -155 84 -155 269c0 184 77 256 155 270v80h60z" />
    <glyph glyph-name="uni21A8" unicode="&#x21a8;" 
d="M278 261v328c-23 -15 -98 -49 -123 -49c-8 0 -16 5 -16 14s14 17 20 21c46 31 95 77 123 125c3 6 10 21 18 21s15 -15 18 -21c28 -48 77 -94 123 -125c6 -4 20 -12 20 -21s-8 -14 -16 -14c-25 0 -100 34 -123 49v-328c23 15 98 49 123 49c8 0 16 -5 16 -14
s-14 -17 -20 -21c-46 -31 -95 -77 -123 -125c-3 -6 -10 -21 -18 -21s-15 15 -18 21c-28 48 -77 94 -123 125c-6 4 -20 12 -20 21s8 14 16 14c25 0 100 -34 123 -49zM461 44v-44h-322v44h322z" />
    <glyph glyph-name="uni2557" unicode="&#x2557;" 
d="M0 144v72h264v-504h-72v432h-192zM0 288v72h408v-648h-72v576h-336z" />
    <glyph glyph-name="uni255E" unicode="&#x255e;" 
d="M600 216v-72h-264v-432h-72v1080h72v-432h264v-72h-264v-72h264z" />
    <glyph glyph-name="uni2510" unicode="&#x2510;" 
d="M336 288v-576h-72v504h-264v72h336z" />
    <glyph glyph-name="uni00A0" unicode="&#xa0;" 
 />
    <glyph glyph-name="uni2550" unicode="&#x2550;" 
d="M0 144v72h600v-72h-600zM0 288v72h600v-72h-600z" />
    <glyph glyph-name="uni2580" unicode="&#x2580;" 
d="M0 252v540h600v-540h-600z" />
    <glyph glyph-name="uni2665" unicode="&#x2665;" 
d="M301 -12h-2c-29 120 -106 224 -180 322c-53 72 -116 161 -116 253c0 83 59 149 144 149c79 0 137 -73 152 -145h2c15 72 73 145 152 145c85 0 144 -66 144 -149c0 -92 -63 -181 -116 -253c-74 -98 -151 -202 -180 -322z" />
    <glyph glyph-name="uni03B1" unicode="&#x3b1;" 
d="M253 470c-48 0 -110 -70 -110 -219c0 -132 52 -200 109 -200c54 0 115 90 115 223c0 69 -32 196 -114 196zM414 375l51 163l63 -17l-88 -252l71 -269h-66l-35 154h-2c-21 -86 -64 -163 -159 -163c-66 0 -176 56 -176 260s108 279 179 279c91 0 141 -70 162 -155z" />
    <glyph glyph-name="uni252C" unicode="&#x252c;" 
d="M0 216v72h600v-72h-264v-504h-72v504h-264z" />
    <glyph glyph-name="uni2310" unicode="&#x2310;" 
d="M74 0h-44v276h540v-44h-496v-232z" />
    <glyph glyph-name="uni25CB.alt1" unicode="&#xe008;" 
d="M71 252c0 126 103 229 229 229s229 -103 229 -229s-103 -229 -229 -229s-229 103 -229 229zM113 252c0 -103 84 -187 187 -187s187 84 187 187c0 102 -84 187 -187 187s-187 -85 -187 -187z" />
    <glyph glyph-name="uni255F" unicode="&#x255f;" 
d="M192 -288v1080h72v-1080h-72zM336 -288v1080h72v-504h192v-72h-192v-504h-72z" />
    <glyph glyph-name="uni03A6" unicode="&#x3a6;" 
d="M266 680h66v-62c149 -1 228 -150 228 -283s-78 -286 -227 -286l-1 -62h-66v62c-148 2 -227 147 -227 282c0 133 78 287 227 287v62zM266 104v459c-113 1 -157 -138 -157 -232c0 -93 46 -226 157 -227zM333 563v-458c112 1 157 133 157 228c0 94 -43 229 -157 230z" />
    <glyph glyph-name="uni2567" unicode="&#x2567;" 
d="M0 144v72h600v-72h-600zM0 288v72h264v432h72v-432h264v-72h-600z" />
    <glyph glyph-name="uni2191" unicode="&#x2191;" 
d="M322 524v-460h-44v460c-23 -15 -98 -49 -123 -49c-8 0 -16 5 -16 14s14 17 20 21c46 31 95 77 123 125c3 6 10 21 18 21s15 -15 18 -21c28 -48 77 -94 123 -125c6 -4 20 -12 20 -21s-8 -14 -16 -14c-25 0 -100 34 -123 49z" />
    <glyph glyph-name="uni263C" unicode="&#x263c;" 
d="M518 513l-88 -88c22 -25 32 -59 36 -90h124v-32h-125c-5 -36 -17 -62 -38 -84l88 -88l-23 -23l-87 87c-24 -23 -55 -37 -89 -42v-123h-32v123c-34 5 -66 16 -89 37l-87 -87l-22 23l87 87c-24 26 -36 56 -39 90h-124v32h124c-1 40 11 70 35 96l-87 87l22 24l88 -88
c26 20 62 29 92 31v125h32v-125c31 -1 61 -12 91 -37l88 87zM166 319c0 -75 50 -134 131 -134c83 0 137 59 137 134c-2 76 -55 134 -136 134c-82 -1 -132 -60 -132 -134z" />
    <glyph glyph-name="uni2568" unicode="&#x2568;" 
d="M0 216v72h192v504h72v-504h72v504h72v-504h192v-72h-600z" />
    <glyph glyph-name="uni2592" unicode="&#x2592;" 
d="M0 -288v97h99v-97h-99zM200 -288v97h99v-97h-99zM400 -288v97h99v-97h-99zM0 695v97h99v-97h-99zM200 695v97h99v-97h-99zM400 695v97h99v-97h-99zM0 499v97h99v-97h-99zM200 499v97h99v-97h-99zM400 499v97h99v-97h-99zM0 -92v97h99v-97h-99zM200 -92v97h99v-97h-99z
M400 -92v97h99v-97h-99zM0 105v97h99v-97h-99zM200 105v97h99v-97h-99zM400 105v97h99v-97h-99zM0 302v97h99v-97h-99zM200 302v97h99v-97h-99zM400 302v97h99v-97h-99zM100 597v97h99v-97h-99zM300 597v97h99v-97h-99zM500 597v97h100v-97h-100zM100 400v97h99v-97h-99z
M300 400v97h99v-97h-99zM500 400v97h100v-97h-100zM500 203v97h100v-97h-100zM300 203v97h99v-97h-99zM100 203v97h99v-97h-99zM100 6v97h99v-97h-99zM300 6v97h99v-97h-99zM500 6v97h100v-97h-100zM500 -190v97h100v-97h-100zM300 -190v97h99v-97h-99zM100 -190v97h99v-97
h-99z" />
    <glyph glyph-name="uni2321" unicode="&#x2321;" 
d="M321 538v-264c0 -136 12 -508 -185 -508c-77 0 -136 70 -136 139c0 26 9 58 41 58c72 0 25 -157 106 -157c23 0 55 6 82 67c27 62 48 179 48 251v414h44z" />
    <glyph glyph-name="uni258C" unicode="&#x258c;" 
d="M0 -288v1080h300v-1080h-300z" />
    <glyph glyph-name="uni2660" unicode="&#x2660;" 
d="M542 0h-484l4 22c157 5 229 90 229 247h-2c-28 -63 -81 -110 -155 -110c-70 0 -131 56 -131 128c0 86 73 143 133 195c77 66 139 127 163 230h2c24 -103 86 -164 163 -230c60 -52 133 -109 133 -195c0 -72 -61 -128 -131 -128c-74 0 -127 47 -155 110h-2
c0 -157 72 -242 229 -247z" />
    <glyph glyph-name="Ismall_Jsmall" unicode="&#xe002;" 
d="M23 0v60h63v401h-63v60h194v-60h-64v-401h64v-60h-194zM239 242h67v-60c0 -60 12 -128 81 -128c73 0 81 81 81 137v330h67v-335c0 -155 -71 -195 -146 -195c-119 0 -150 85 -150 178v73z" />
    <glyph glyph-name="uni25B6" unicode="&#x25b6;" 
d="M63 106v508l474 -254z" />
    <glyph glyph-name="uni2192" unicode="&#x2192;" 
d="M4 382h460c-15 23 -49 98 -49 123c0 8 5 16 14 16s17 -14 21 -20c31 -46 77 -95 125 -123c6 -3 21 -10 21 -18s-15 -15 -21 -18c-48 -28 -94 -77 -125 -123c-4 -6 -12 -20 -21 -20s-14 8 -14 16c0 25 34 100 49 123h-460v44z" />
    <glyph glyph-name="uni2190" unicode="&#x2190;" 
d="M136 382h460v-44h-460c15 -23 49 -98 49 -123c0 -8 -5 -16 -14 -16s-17 14 -21 20c-31 46 -77 95 -125 123c-6 3 -21 10 -21 18s15 15 21 18c48 28 94 77 125 123c4 6 12 20 21 20s14 -8 14 -16c0 -25 -34 -100 -49 -123z" />
    <glyph glyph-name="uni256C" unicode="&#x256c;" 
d="M0 144v72h264v-504h-72v432h-192zM0 288v72h192v432h72v-504h-264zM336 -288v504h264v-72h-192v-432h-72zM336 288v504h72v-432h192v-72h-264z" />
    <glyph glyph-name="uni2584" unicode="&#x2584;" 
d="M0 -288v540h600v-540h-600z" />
    <glyph glyph-name="uni03B4" unicode="&#x3b4;" 
d="M430 223c0 78 -43 168 -132 168s-128 -98 -128 -173c0 -73 44 -167 128 -167c89 0 132 96 132 172zM217 607l200 -199c52 -54 83 -108 83 -184c0 -116 -76 -233 -202 -233c-121 0 -198 118 -198 228c0 153 86 219 186 232l-131 135v81h293v-60h-231z" />
    <glyph glyph-name="uni2261" unicode="&#x2261;" 
d="M566 516v-44h-532v44h532zM566 382v-44h-532v44h532zM566 248v-44h-532v44h532z" />
    <glyph glyph-name="uni2563" unicode="&#x2563;" 
d="M336 -288v1080h72v-1080h-72zM264 792v-504h-264v72h192v432h72zM264 216v-504h-72v432h-192v72h264z" />
    <glyph glyph-name="uni2590" unicode="&#x2590;" 
d="M300 -288v1080h300v-1080h-300z" />
    <glyph glyph-name="uni2666" unicode="&#x2666;" 
d="M300 712c84 -129 188 -249 297 -362c-109 -113 -213 -233 -297 -362c-84 129 -188 249 -297 362c109 113 213 233 297 362z" />
    <glyph glyph-name="uni263A" unicode="&#x263a;" 
d="M10 330c0 162 127 290 290 290s290 -128 290 -290s-127 -290 -290 -290s-290 128 -290 290zM300 605c-154 0 -274 -121 -274 -275s120 -275 274 -275s274 121 274 275s-120 275 -274 275zM132 429c0 28 22 50 50 50s50 -22 50 -50s-22 -50 -50 -50s-50 22 -50 50z
M368 429c0 28 22 50 50 50s50 -22 50 -50s-22 -50 -50 -50s-50 22 -50 50zM300 110c-46 0 -102 16 -140 62c-34 40 -13 89 2 62c42 -76 96 -90 138 -90s96 14 138 90c15 27 36 -22 2 -62c-38 -46 -94 -62 -140 -62z" />
    <glyph glyph-name="uni2588" unicode="&#x2588;" 
d="M0 -288v1080h600v-1080h-600z" />
    <glyph glyph-name="uni2591" unicode="&#x2591;" 
d="M0 -288v98h100v-98h-100zM200 -288v98h100v-98h-100zM400 -288v98h100v-98h-100zM0 694v98h100v-98h-100zM200 694v98h100v-98h-100zM400 694v98h100v-98h-100zM0 497v98h100v-98h-100zM200 497v98h100v-98h-100zM400 497v98h100v-98h-100zM0 -91v98h100v-98h-100z
M200 -91v98h100v-98h-100zM400 -91v98h100v-98h-100zM0 105v98h100v-98h-100zM200 105v98h100v-98h-100zM400 105v98h100v-98h-100zM0 301v98h100v-98h-100zM200 301v98h100v-98h-100zM400 301v98h100v-98h-100z" />
    <glyph glyph-name="uni2229" unicode="&#x2229;" 
d="M590 0h-44v444c0 137 -121 251 -246 251s-246 -114 -246 -251v-444h-44v433c0 169 125 301 290 301s290 -132 290 -301v-433z" />
    <glyph glyph-name="uni25B2" unicode="&#x25b2;" 
d="M46 122l254 474l254 -474h-508z" />
  </font>
</defs>
</svg>
